G04 #@! TF.FileFunction,Legend,Top*
%FSLAX46Y46*%
G04 Gerber Fmt 4.6, Leading zero omitted, Abs format (unit mm)*
G04 Created by KiCad (PCBNEW 4.0.2-4+6225~38~ubuntu14.04.1-stable) date Fri 18 Mar 2016 19:58:13 GMT*
%MOMM*%
G01*
G04 APERTURE LIST*
%ADD10C,0.100000*%
%ADD11C,0.200000*%
%ADD12C,0.120000*%
%ADD13C,0.150000*%
%ADD14C,0.300000*%
%ADD15C,0.110000*%
G04 APERTURE END LIST*
D10*
D11*
X134620000Y-123698000D02*
X137668000Y-123698000D01*
X116840000Y-113792000D02*
X119888000Y-113792000D01*
X117856000Y-123698000D02*
X120904000Y-123698000D01*
D12*
X118479712Y-124851905D02*
X118479712Y-124051905D01*
X118746379Y-124623333D01*
X119013046Y-124051905D01*
X119013046Y-124851905D01*
X119393998Y-124851905D02*
X119393998Y-124318571D01*
X119393998Y-124051905D02*
X119355903Y-124090000D01*
X119393998Y-124128095D01*
X119432093Y-124090000D01*
X119393998Y-124051905D01*
X119393998Y-124128095D01*
X120117807Y-124813810D02*
X120041617Y-124851905D01*
X119889236Y-124851905D01*
X119813045Y-124813810D01*
X119774950Y-124775714D01*
X119736855Y-124699524D01*
X119736855Y-124470952D01*
X119774950Y-124394762D01*
X119813045Y-124356667D01*
X119889236Y-124318571D01*
X120041617Y-124318571D01*
X120117807Y-124356667D01*
X120460664Y-124851905D02*
X120460664Y-124318571D01*
X120460664Y-124470952D02*
X120498759Y-124394762D01*
X120536855Y-124356667D01*
X120613045Y-124318571D01*
X120689236Y-124318571D01*
X121070188Y-124851905D02*
X120993997Y-124813810D01*
X120955902Y-124775714D01*
X120917807Y-124699524D01*
X120917807Y-124470952D01*
X120955902Y-124394762D01*
X120993997Y-124356667D01*
X121070188Y-124318571D01*
X121184474Y-124318571D01*
X121260664Y-124356667D01*
X121298759Y-124394762D01*
X121336855Y-124470952D01*
X121336855Y-124699524D01*
X121298759Y-124775714D01*
X121260664Y-124813810D01*
X121184474Y-124851905D01*
X121070188Y-124851905D01*
X121946379Y-124432857D02*
X121679712Y-124432857D01*
X121679712Y-124851905D02*
X121679712Y-124051905D01*
X122060665Y-124051905D01*
X122746379Y-124851905D02*
X122365426Y-124851905D01*
X122365426Y-124051905D01*
X123013045Y-124851905D02*
X123013045Y-124318571D01*
X123013045Y-124051905D02*
X122974950Y-124090000D01*
X123013045Y-124128095D01*
X123051140Y-124090000D01*
X123013045Y-124051905D01*
X123013045Y-124128095D01*
X123851140Y-124775714D02*
X123813045Y-124813810D01*
X123698759Y-124851905D01*
X123622569Y-124851905D01*
X123508283Y-124813810D01*
X123432092Y-124737619D01*
X123393997Y-124661429D01*
X123355902Y-124509048D01*
X123355902Y-124394762D01*
X123393997Y-124242381D01*
X123432092Y-124166190D01*
X123508283Y-124090000D01*
X123622569Y-124051905D01*
X123698759Y-124051905D01*
X123813045Y-124090000D01*
X123851140Y-124128095D01*
X124765426Y-124813810D02*
X124841616Y-124851905D01*
X124993997Y-124851905D01*
X125070188Y-124813810D01*
X125108283Y-124737619D01*
X125108283Y-124699524D01*
X125070188Y-124623333D01*
X124993997Y-124585238D01*
X124879712Y-124585238D01*
X124803521Y-124547143D01*
X124765426Y-124470952D01*
X124765426Y-124432857D01*
X124803521Y-124356667D01*
X124879712Y-124318571D01*
X124993997Y-124318571D01*
X125070188Y-124356667D01*
X125755902Y-124813810D02*
X125679712Y-124851905D01*
X125527331Y-124851905D01*
X125451140Y-124813810D01*
X125413045Y-124737619D01*
X125413045Y-124432857D01*
X125451140Y-124356667D01*
X125527331Y-124318571D01*
X125679712Y-124318571D01*
X125755902Y-124356667D01*
X125793997Y-124432857D01*
X125793997Y-124509048D01*
X125413045Y-124585238D01*
X126136854Y-124851905D02*
X126136854Y-124318571D01*
X126136854Y-124470952D02*
X126174949Y-124394762D01*
X126213045Y-124356667D01*
X126289235Y-124318571D01*
X126365426Y-124318571D01*
X126555902Y-124318571D02*
X126746378Y-124851905D01*
X126936854Y-124318571D01*
X127355902Y-124851905D02*
X127279711Y-124813810D01*
X127241616Y-124775714D01*
X127203521Y-124699524D01*
X127203521Y-124470952D01*
X127241616Y-124394762D01*
X127279711Y-124356667D01*
X127355902Y-124318571D01*
X127470188Y-124318571D01*
X127546378Y-124356667D01*
X127584473Y-124394762D01*
X127622569Y-124470952D01*
X127622569Y-124699524D01*
X127584473Y-124775714D01*
X127546378Y-124813810D01*
X127470188Y-124851905D01*
X127355902Y-124851905D01*
X128536855Y-124813810D02*
X128613045Y-124851905D01*
X128765426Y-124851905D01*
X128841617Y-124813810D01*
X128879712Y-124737619D01*
X128879712Y-124699524D01*
X128841617Y-124623333D01*
X128765426Y-124585238D01*
X128651141Y-124585238D01*
X128574950Y-124547143D01*
X128536855Y-124470952D01*
X128536855Y-124432857D01*
X128574950Y-124356667D01*
X128651141Y-124318571D01*
X128765426Y-124318571D01*
X128841617Y-124356667D01*
X129336855Y-124851905D02*
X129260664Y-124813810D01*
X129222569Y-124775714D01*
X129184474Y-124699524D01*
X129184474Y-124470952D01*
X129222569Y-124394762D01*
X129260664Y-124356667D01*
X129336855Y-124318571D01*
X129451141Y-124318571D01*
X129527331Y-124356667D01*
X129565426Y-124394762D01*
X129603522Y-124470952D01*
X129603522Y-124699524D01*
X129565426Y-124775714D01*
X129527331Y-124813810D01*
X129451141Y-124851905D01*
X129336855Y-124851905D01*
X130060665Y-124851905D02*
X129984474Y-124813810D01*
X129946379Y-124737619D01*
X129946379Y-124051905D01*
X130670189Y-124813810D02*
X130593999Y-124851905D01*
X130441618Y-124851905D01*
X130365427Y-124813810D01*
X130327332Y-124737619D01*
X130327332Y-124432857D01*
X130365427Y-124356667D01*
X130441618Y-124318571D01*
X130593999Y-124318571D01*
X130670189Y-124356667D01*
X130708284Y-124432857D01*
X130708284Y-124509048D01*
X130327332Y-124585238D01*
X131051141Y-124318571D02*
X131051141Y-124851905D01*
X131051141Y-124394762D02*
X131089236Y-124356667D01*
X131165427Y-124318571D01*
X131279713Y-124318571D01*
X131355903Y-124356667D01*
X131393998Y-124432857D01*
X131393998Y-124851905D01*
X131889237Y-124851905D02*
X131813046Y-124813810D01*
X131774951Y-124775714D01*
X131736856Y-124699524D01*
X131736856Y-124470952D01*
X131774951Y-124394762D01*
X131813046Y-124356667D01*
X131889237Y-124318571D01*
X132003523Y-124318571D01*
X132079713Y-124356667D01*
X132117808Y-124394762D01*
X132155904Y-124470952D01*
X132155904Y-124699524D01*
X132117808Y-124775714D01*
X132079713Y-124813810D01*
X132003523Y-124851905D01*
X131889237Y-124851905D01*
X132498761Y-124851905D02*
X132498761Y-124318571D01*
X132498761Y-124051905D02*
X132460666Y-124090000D01*
X132498761Y-124128095D01*
X132536856Y-124090000D01*
X132498761Y-124051905D01*
X132498761Y-124128095D01*
X133222570Y-124851905D02*
X133222570Y-124051905D01*
X133222570Y-124813810D02*
X133146380Y-124851905D01*
X132993999Y-124851905D01*
X132917808Y-124813810D01*
X132879713Y-124775714D01*
X132841618Y-124699524D01*
X132841618Y-124470952D01*
X132879713Y-124394762D01*
X132917808Y-124356667D01*
X132993999Y-124318571D01*
X133146380Y-124318571D01*
X133222570Y-124356667D01*
X134213047Y-124851905D02*
X134213047Y-124051905D01*
X134213047Y-124356667D02*
X134289238Y-124318571D01*
X134441619Y-124318571D01*
X134517809Y-124356667D01*
X134555904Y-124394762D01*
X134594000Y-124470952D01*
X134594000Y-124699524D01*
X134555904Y-124775714D01*
X134517809Y-124813810D01*
X134441619Y-124851905D01*
X134289238Y-124851905D01*
X134213047Y-124813810D01*
X135051143Y-124851905D02*
X134974952Y-124813810D01*
X134936857Y-124775714D01*
X134898762Y-124699524D01*
X134898762Y-124470952D01*
X134936857Y-124394762D01*
X134974952Y-124356667D01*
X135051143Y-124318571D01*
X135165429Y-124318571D01*
X135241619Y-124356667D01*
X135279714Y-124394762D01*
X135317810Y-124470952D01*
X135317810Y-124699524D01*
X135279714Y-124775714D01*
X135241619Y-124813810D01*
X135165429Y-124851905D01*
X135051143Y-124851905D01*
X135546381Y-124318571D02*
X135851143Y-124318571D01*
X135660667Y-124051905D02*
X135660667Y-124737619D01*
X135698762Y-124813810D01*
X135774953Y-124851905D01*
X135851143Y-124851905D01*
X136003524Y-124318571D02*
X136308286Y-124318571D01*
X136117810Y-124051905D02*
X136117810Y-124737619D01*
X136155905Y-124813810D01*
X136232096Y-124851905D01*
X136308286Y-124851905D01*
X136689239Y-124851905D02*
X136613048Y-124813810D01*
X136574953Y-124775714D01*
X136536858Y-124699524D01*
X136536858Y-124470952D01*
X136574953Y-124394762D01*
X136613048Y-124356667D01*
X136689239Y-124318571D01*
X136803525Y-124318571D01*
X136879715Y-124356667D01*
X136917810Y-124394762D01*
X136955906Y-124470952D01*
X136955906Y-124699524D01*
X136917810Y-124775714D01*
X136879715Y-124813810D01*
X136803525Y-124851905D01*
X136689239Y-124851905D01*
X137298763Y-124851905D02*
X137298763Y-124318571D01*
X137298763Y-124394762D02*
X137336858Y-124356667D01*
X137413049Y-124318571D01*
X137527335Y-124318571D01*
X137603525Y-124356667D01*
X137641620Y-124432857D01*
X137641620Y-124851905D01*
X137641620Y-124432857D02*
X137679716Y-124356667D01*
X137755906Y-124318571D01*
X137870192Y-124318571D01*
X137946382Y-124356667D01*
X137984477Y-124432857D01*
X137984477Y-124851905D01*
X138898764Y-124318571D02*
X139089240Y-124851905D01*
X139279716Y-124318571D01*
X140003526Y-124851905D02*
X139546383Y-124851905D01*
X139774954Y-124851905D02*
X139774954Y-124051905D01*
X139698764Y-124166190D01*
X139622573Y-124242381D01*
X139546383Y-124280476D01*
X140346383Y-124775714D02*
X140384478Y-124813810D01*
X140346383Y-124851905D01*
X140308288Y-124813810D01*
X140346383Y-124775714D01*
X140346383Y-124851905D01*
X141146383Y-124851905D02*
X140689240Y-124851905D01*
X140917811Y-124851905D02*
X140917811Y-124051905D01*
X140841621Y-124166190D01*
X140765430Y-124242381D01*
X140689240Y-124280476D01*
X124308284Y-126531905D02*
X124308284Y-127103333D01*
X124270188Y-127217619D01*
X124193998Y-127293810D01*
X124079712Y-127331905D01*
X124003522Y-127331905D01*
X125032093Y-127331905D02*
X125032093Y-126912857D01*
X124993998Y-126836667D01*
X124917808Y-126798571D01*
X124765427Y-126798571D01*
X124689236Y-126836667D01*
X125032093Y-127293810D02*
X124955903Y-127331905D01*
X124765427Y-127331905D01*
X124689236Y-127293810D01*
X124651141Y-127217619D01*
X124651141Y-127141429D01*
X124689236Y-127065238D01*
X124765427Y-127027143D01*
X124955903Y-127027143D01*
X125032093Y-126989048D01*
X125413046Y-127331905D02*
X125413046Y-126531905D01*
X125489237Y-127027143D02*
X125717808Y-127331905D01*
X125717808Y-126798571D02*
X125413046Y-127103333D01*
X126403522Y-126798571D02*
X126403522Y-127331905D01*
X126060665Y-126798571D02*
X126060665Y-127217619D01*
X126098760Y-127293810D01*
X126174951Y-127331905D01*
X126289237Y-127331905D01*
X126365427Y-127293810D01*
X126403522Y-127255714D01*
X126784475Y-127331905D02*
X126784475Y-126531905D01*
X126784475Y-126836667D02*
X126860666Y-126798571D01*
X127013047Y-126798571D01*
X127089237Y-126836667D01*
X127127332Y-126874762D01*
X127165428Y-126950952D01*
X127165428Y-127179524D01*
X127127332Y-127255714D01*
X127089237Y-127293810D01*
X127013047Y-127331905D01*
X126860666Y-127331905D01*
X126784475Y-127293810D01*
X128117809Y-127331905D02*
X128117809Y-126531905D01*
X128574952Y-127331905D01*
X128574952Y-126531905D01*
X129260666Y-127293810D02*
X129184476Y-127331905D01*
X129032095Y-127331905D01*
X128955904Y-127293810D01*
X128917809Y-127217619D01*
X128917809Y-126912857D01*
X128955904Y-126836667D01*
X129032095Y-126798571D01*
X129184476Y-126798571D01*
X129260666Y-126836667D01*
X129298761Y-126912857D01*
X129298761Y-126989048D01*
X128917809Y-127065238D01*
X129984475Y-127331905D02*
X129984475Y-126531905D01*
X129984475Y-127293810D02*
X129908285Y-127331905D01*
X129755904Y-127331905D01*
X129679713Y-127293810D01*
X129641618Y-127255714D01*
X129603523Y-127179524D01*
X129603523Y-126950952D01*
X129641618Y-126874762D01*
X129679713Y-126836667D01*
X129755904Y-126798571D01*
X129908285Y-126798571D01*
X129984475Y-126836667D01*
X130365428Y-127331905D02*
X130365428Y-126531905D01*
X130365428Y-126836667D02*
X130441619Y-126798571D01*
X130594000Y-126798571D01*
X130670190Y-126836667D01*
X130708285Y-126874762D01*
X130746381Y-126950952D01*
X130746381Y-127179524D01*
X130708285Y-127255714D01*
X130670190Y-127293810D01*
X130594000Y-127331905D01*
X130441619Y-127331905D01*
X130365428Y-127293810D01*
X131432095Y-127331905D02*
X131432095Y-126912857D01*
X131394000Y-126836667D01*
X131317810Y-126798571D01*
X131165429Y-126798571D01*
X131089238Y-126836667D01*
X131432095Y-127293810D02*
X131355905Y-127331905D01*
X131165429Y-127331905D01*
X131089238Y-127293810D01*
X131051143Y-127217619D01*
X131051143Y-127141429D01*
X131089238Y-127065238D01*
X131165429Y-127027143D01*
X131355905Y-127027143D01*
X131432095Y-126989048D01*
X131927334Y-127331905D02*
X131851143Y-127293810D01*
X131813048Y-127217619D01*
X131813048Y-126531905D01*
X132803525Y-126608095D02*
X132841620Y-126570000D01*
X132917811Y-126531905D01*
X133108287Y-126531905D01*
X133184477Y-126570000D01*
X133222573Y-126608095D01*
X133260668Y-126684286D01*
X133260668Y-126760476D01*
X133222573Y-126874762D01*
X132765430Y-127331905D01*
X133260668Y-127331905D01*
X133755906Y-126531905D02*
X133832097Y-126531905D01*
X133908287Y-126570000D01*
X133946382Y-126608095D01*
X133984478Y-126684286D01*
X134022573Y-126836667D01*
X134022573Y-127027143D01*
X133984478Y-127179524D01*
X133946382Y-127255714D01*
X133908287Y-127293810D01*
X133832097Y-127331905D01*
X133755906Y-127331905D01*
X133679716Y-127293810D01*
X133641620Y-127255714D01*
X133603525Y-127179524D01*
X133565430Y-127027143D01*
X133565430Y-126836667D01*
X133603525Y-126684286D01*
X133641620Y-126608095D01*
X133679716Y-126570000D01*
X133755906Y-126531905D01*
X134784478Y-127331905D02*
X134327335Y-127331905D01*
X134555906Y-127331905D02*
X134555906Y-126531905D01*
X134479716Y-126646190D01*
X134403525Y-126722381D01*
X134327335Y-126760476D01*
X135470192Y-126531905D02*
X135317811Y-126531905D01*
X135241621Y-126570000D01*
X135203526Y-126608095D01*
X135127335Y-126722381D01*
X135089240Y-126874762D01*
X135089240Y-127179524D01*
X135127335Y-127255714D01*
X135165430Y-127293810D01*
X135241621Y-127331905D01*
X135394002Y-127331905D01*
X135470192Y-127293810D01*
X135508288Y-127255714D01*
X135546383Y-127179524D01*
X135546383Y-126989048D01*
X135508288Y-126912857D01*
X135470192Y-126874762D01*
X135394002Y-126836667D01*
X135241621Y-126836667D01*
X135165430Y-126874762D01*
X135127335Y-126912857D01*
X135089240Y-126989048D01*
X142309810Y-140055619D02*
X142347905Y-139979429D01*
X142347905Y-139827048D01*
X142309810Y-139750857D01*
X142233619Y-139712762D01*
X142195524Y-139712762D01*
X142119333Y-139750857D01*
X142081238Y-139827048D01*
X142081238Y-139941333D01*
X142043143Y-140017524D01*
X141966952Y-140055619D01*
X141928857Y-140055619D01*
X141852667Y-140017524D01*
X141814571Y-139941333D01*
X141814571Y-139827048D01*
X141852667Y-139750857D01*
X142347905Y-139255619D02*
X142309810Y-139331810D01*
X142271714Y-139369905D01*
X142195524Y-139408000D01*
X141966952Y-139408000D01*
X141890762Y-139369905D01*
X141852667Y-139331810D01*
X141814571Y-139255619D01*
X141814571Y-139141333D01*
X141852667Y-139065143D01*
X141890762Y-139027048D01*
X141966952Y-138988952D01*
X142195524Y-138988952D01*
X142271714Y-139027048D01*
X142309810Y-139065143D01*
X142347905Y-139141333D01*
X142347905Y-139255619D01*
X142309810Y-138303238D02*
X142347905Y-138379428D01*
X142347905Y-138531809D01*
X142309810Y-138608000D01*
X142271714Y-138646095D01*
X142195524Y-138684190D01*
X141966952Y-138684190D01*
X141890762Y-138646095D01*
X141852667Y-138608000D01*
X141814571Y-138531809D01*
X141814571Y-138379428D01*
X141852667Y-138303238D01*
X142347905Y-137960381D02*
X141547905Y-137960381D01*
X142043143Y-137884190D02*
X142347905Y-137655619D01*
X141814571Y-137655619D02*
X142119333Y-137960381D01*
X142309810Y-137008000D02*
X142347905Y-137084190D01*
X142347905Y-137236571D01*
X142309810Y-137312762D01*
X142233619Y-137350857D01*
X141928857Y-137350857D01*
X141852667Y-137312762D01*
X141814571Y-137236571D01*
X141814571Y-137084190D01*
X141852667Y-137008000D01*
X141928857Y-136969905D01*
X142005048Y-136969905D01*
X142081238Y-137350857D01*
X141814571Y-136741334D02*
X141814571Y-136436572D01*
X141547905Y-136627048D02*
X142233619Y-136627048D01*
X142309810Y-136588953D01*
X142347905Y-136512762D01*
X142347905Y-136436572D01*
X142309810Y-135598476D02*
X142347905Y-135522286D01*
X142347905Y-135369905D01*
X142309810Y-135293714D01*
X142233619Y-135255619D01*
X142195524Y-135255619D01*
X142119333Y-135293714D01*
X142081238Y-135369905D01*
X142081238Y-135484190D01*
X142043143Y-135560381D01*
X141966952Y-135598476D01*
X141928857Y-135598476D01*
X141852667Y-135560381D01*
X141814571Y-135484190D01*
X141814571Y-135369905D01*
X141852667Y-135293714D01*
X141814571Y-135027048D02*
X141814571Y-134722286D01*
X141547905Y-134912762D02*
X142233619Y-134912762D01*
X142309810Y-134874667D01*
X142347905Y-134798476D01*
X142347905Y-134722286D01*
X142347905Y-134455619D02*
X141814571Y-134455619D01*
X141966952Y-134455619D02*
X141890762Y-134417524D01*
X141852667Y-134379428D01*
X141814571Y-134303238D01*
X141814571Y-134227047D01*
X142347905Y-133960381D02*
X141814571Y-133960381D01*
X141547905Y-133960381D02*
X141586000Y-133998476D01*
X141624095Y-133960381D01*
X141586000Y-133922286D01*
X141547905Y-133960381D01*
X141624095Y-133960381D01*
X141814571Y-133579429D02*
X142614571Y-133579429D01*
X141852667Y-133579429D02*
X141814571Y-133503238D01*
X141814571Y-133350857D01*
X141852667Y-133274667D01*
X141890762Y-133236572D01*
X141966952Y-133198476D01*
X142195524Y-133198476D01*
X142271714Y-133236572D01*
X142309810Y-133274667D01*
X142347905Y-133350857D01*
X142347905Y-133503238D01*
X142309810Y-133579429D01*
D13*
X116276762Y-148502667D02*
X116752953Y-148502667D01*
X116181524Y-148788381D02*
X116514857Y-147788381D01*
X116848191Y-148788381D01*
X117181524Y-148788381D02*
X117181524Y-148121714D01*
X117181524Y-148312190D02*
X117229143Y-148216952D01*
X117276762Y-148169333D01*
X117372000Y-148121714D01*
X117467239Y-148121714D01*
X118229144Y-148788381D02*
X118229144Y-147788381D01*
X118229144Y-148740762D02*
X118133906Y-148788381D01*
X117943429Y-148788381D01*
X117848191Y-148740762D01*
X117800572Y-148693143D01*
X117752953Y-148597905D01*
X117752953Y-148312190D01*
X117800572Y-148216952D01*
X117848191Y-148169333D01*
X117943429Y-148121714D01*
X118133906Y-148121714D01*
X118229144Y-148169333D01*
X119133906Y-148121714D02*
X119133906Y-148788381D01*
X118705334Y-148121714D02*
X118705334Y-148645524D01*
X118752953Y-148740762D01*
X118848191Y-148788381D01*
X118991049Y-148788381D01*
X119086287Y-148740762D01*
X119133906Y-148693143D01*
X119610096Y-148788381D02*
X119610096Y-148121714D01*
X119610096Y-147788381D02*
X119562477Y-147836000D01*
X119610096Y-147883619D01*
X119657715Y-147836000D01*
X119610096Y-147788381D01*
X119610096Y-147883619D01*
X120086286Y-148121714D02*
X120086286Y-148788381D01*
X120086286Y-148216952D02*
X120133905Y-148169333D01*
X120229143Y-148121714D01*
X120372001Y-148121714D01*
X120467239Y-148169333D01*
X120514858Y-148264571D01*
X120514858Y-148788381D01*
X121133905Y-148788381D02*
X121038667Y-148740762D01*
X120991048Y-148693143D01*
X120943429Y-148597905D01*
X120943429Y-148312190D01*
X120991048Y-148216952D01*
X121038667Y-148169333D01*
X121133905Y-148121714D01*
X121276763Y-148121714D01*
X121372001Y-148169333D01*
X121419620Y-148216952D01*
X121467239Y-148312190D01*
X121467239Y-148597905D01*
X121419620Y-148693143D01*
X121372001Y-148740762D01*
X121276763Y-148788381D01*
X121133905Y-148788381D01*
D12*
X109035810Y-148945619D02*
X109073905Y-148869429D01*
X109073905Y-148717048D01*
X109035810Y-148640857D01*
X108959619Y-148602762D01*
X108921524Y-148602762D01*
X108845333Y-148640857D01*
X108807238Y-148717048D01*
X108807238Y-148831333D01*
X108769143Y-148907524D01*
X108692952Y-148945619D01*
X108654857Y-148945619D01*
X108578667Y-148907524D01*
X108540571Y-148831333D01*
X108540571Y-148717048D01*
X108578667Y-148640857D01*
X109073905Y-148145619D02*
X109035810Y-148221810D01*
X108997714Y-148259905D01*
X108921524Y-148298000D01*
X108692952Y-148298000D01*
X108616762Y-148259905D01*
X108578667Y-148221810D01*
X108540571Y-148145619D01*
X108540571Y-148031333D01*
X108578667Y-147955143D01*
X108616762Y-147917048D01*
X108692952Y-147878952D01*
X108921524Y-147878952D01*
X108997714Y-147917048D01*
X109035810Y-147955143D01*
X109073905Y-148031333D01*
X109073905Y-148145619D01*
X109035810Y-147193238D02*
X109073905Y-147269428D01*
X109073905Y-147421809D01*
X109035810Y-147498000D01*
X108997714Y-147536095D01*
X108921524Y-147574190D01*
X108692952Y-147574190D01*
X108616762Y-147536095D01*
X108578667Y-147498000D01*
X108540571Y-147421809D01*
X108540571Y-147269428D01*
X108578667Y-147193238D01*
X109073905Y-146850381D02*
X108273905Y-146850381D01*
X108769143Y-146774190D02*
X109073905Y-146545619D01*
X108540571Y-146545619D02*
X108845333Y-146850381D01*
X109035810Y-145898000D02*
X109073905Y-145974190D01*
X109073905Y-146126571D01*
X109035810Y-146202762D01*
X108959619Y-146240857D01*
X108654857Y-146240857D01*
X108578667Y-146202762D01*
X108540571Y-146126571D01*
X108540571Y-145974190D01*
X108578667Y-145898000D01*
X108654857Y-145859905D01*
X108731048Y-145859905D01*
X108807238Y-146240857D01*
X108540571Y-145631334D02*
X108540571Y-145326572D01*
X108273905Y-145517048D02*
X108959619Y-145517048D01*
X109035810Y-145478953D01*
X109073905Y-145402762D01*
X109073905Y-145326572D01*
X109035810Y-144488476D02*
X109073905Y-144412286D01*
X109073905Y-144259905D01*
X109035810Y-144183714D01*
X108959619Y-144145619D01*
X108921524Y-144145619D01*
X108845333Y-144183714D01*
X108807238Y-144259905D01*
X108807238Y-144374190D01*
X108769143Y-144450381D01*
X108692952Y-144488476D01*
X108654857Y-144488476D01*
X108578667Y-144450381D01*
X108540571Y-144374190D01*
X108540571Y-144259905D01*
X108578667Y-144183714D01*
X108540571Y-143917048D02*
X108540571Y-143612286D01*
X108273905Y-143802762D02*
X108959619Y-143802762D01*
X109035810Y-143764667D01*
X109073905Y-143688476D01*
X109073905Y-143612286D01*
X109073905Y-143345619D02*
X108540571Y-143345619D01*
X108692952Y-143345619D02*
X108616762Y-143307524D01*
X108578667Y-143269428D01*
X108540571Y-143193238D01*
X108540571Y-143117047D01*
X109073905Y-142850381D02*
X108540571Y-142850381D01*
X108273905Y-142850381D02*
X108312000Y-142888476D01*
X108350095Y-142850381D01*
X108312000Y-142812286D01*
X108273905Y-142850381D01*
X108350095Y-142850381D01*
X108540571Y-142469429D02*
X109340571Y-142469429D01*
X108578667Y-142469429D02*
X108540571Y-142393238D01*
X108540571Y-142240857D01*
X108578667Y-142164667D01*
X108616762Y-142126572D01*
X108692952Y-142088476D01*
X108921524Y-142088476D01*
X108997714Y-142126572D01*
X109035810Y-142164667D01*
X109073905Y-142240857D01*
X109073905Y-142393238D01*
X109035810Y-142469429D01*
X114369810Y-132689619D02*
X114407905Y-132613429D01*
X114407905Y-132461048D01*
X114369810Y-132384857D01*
X114293619Y-132346762D01*
X114255524Y-132346762D01*
X114179333Y-132384857D01*
X114141238Y-132461048D01*
X114141238Y-132575333D01*
X114103143Y-132651524D01*
X114026952Y-132689619D01*
X113988857Y-132689619D01*
X113912667Y-132651524D01*
X113874571Y-132575333D01*
X113874571Y-132461048D01*
X113912667Y-132384857D01*
X114407905Y-131889619D02*
X114369810Y-131965810D01*
X114331714Y-132003905D01*
X114255524Y-132042000D01*
X114026952Y-132042000D01*
X113950762Y-132003905D01*
X113912667Y-131965810D01*
X113874571Y-131889619D01*
X113874571Y-131775333D01*
X113912667Y-131699143D01*
X113950762Y-131661048D01*
X114026952Y-131622952D01*
X114255524Y-131622952D01*
X114331714Y-131661048D01*
X114369810Y-131699143D01*
X114407905Y-131775333D01*
X114407905Y-131889619D01*
X114369810Y-130937238D02*
X114407905Y-131013428D01*
X114407905Y-131165809D01*
X114369810Y-131242000D01*
X114331714Y-131280095D01*
X114255524Y-131318190D01*
X114026952Y-131318190D01*
X113950762Y-131280095D01*
X113912667Y-131242000D01*
X113874571Y-131165809D01*
X113874571Y-131013428D01*
X113912667Y-130937238D01*
X114407905Y-130594381D02*
X113607905Y-130594381D01*
X114103143Y-130518190D02*
X114407905Y-130289619D01*
X113874571Y-130289619D02*
X114179333Y-130594381D01*
X114369810Y-129642000D02*
X114407905Y-129718190D01*
X114407905Y-129870571D01*
X114369810Y-129946762D01*
X114293619Y-129984857D01*
X113988857Y-129984857D01*
X113912667Y-129946762D01*
X113874571Y-129870571D01*
X113874571Y-129718190D01*
X113912667Y-129642000D01*
X113988857Y-129603905D01*
X114065048Y-129603905D01*
X114141238Y-129984857D01*
X113874571Y-129375334D02*
X113874571Y-129070572D01*
X113607905Y-129261048D02*
X114293619Y-129261048D01*
X114369810Y-129222953D01*
X114407905Y-129146762D01*
X114407905Y-129070572D01*
X114369810Y-128232476D02*
X114407905Y-128156286D01*
X114407905Y-128003905D01*
X114369810Y-127927714D01*
X114293619Y-127889619D01*
X114255524Y-127889619D01*
X114179333Y-127927714D01*
X114141238Y-128003905D01*
X114141238Y-128118190D01*
X114103143Y-128194381D01*
X114026952Y-128232476D01*
X113988857Y-128232476D01*
X113912667Y-128194381D01*
X113874571Y-128118190D01*
X113874571Y-128003905D01*
X113912667Y-127927714D01*
X113874571Y-127661048D02*
X113874571Y-127356286D01*
X113607905Y-127546762D02*
X114293619Y-127546762D01*
X114369810Y-127508667D01*
X114407905Y-127432476D01*
X114407905Y-127356286D01*
X114407905Y-127089619D02*
X113874571Y-127089619D01*
X114026952Y-127089619D02*
X113950762Y-127051524D01*
X113912667Y-127013428D01*
X113874571Y-126937238D01*
X113874571Y-126861047D01*
X114407905Y-126594381D02*
X113874571Y-126594381D01*
X113607905Y-126594381D02*
X113646000Y-126632476D01*
X113684095Y-126594381D01*
X113646000Y-126556286D01*
X113607905Y-126594381D01*
X113684095Y-126594381D01*
X113874571Y-126213429D02*
X114674571Y-126213429D01*
X113912667Y-126213429D02*
X113874571Y-126137238D01*
X113874571Y-125984857D01*
X113912667Y-125908667D01*
X113950762Y-125870572D01*
X114026952Y-125832476D01*
X114255524Y-125832476D01*
X114331714Y-125870572D01*
X114369810Y-125908667D01*
X114407905Y-125984857D01*
X114407905Y-126137238D01*
X114369810Y-126213429D01*
X141236762Y-149459905D02*
X140779619Y-149459905D01*
X141008190Y-149459905D02*
X141008190Y-148659905D01*
X140932000Y-148774190D01*
X140855809Y-148850381D01*
X140779619Y-148888476D01*
X141541524Y-148736095D02*
X141579619Y-148698000D01*
X141655810Y-148659905D01*
X141846286Y-148659905D01*
X141922476Y-148698000D01*
X141960572Y-148736095D01*
X141998667Y-148812286D01*
X141998667Y-148888476D01*
X141960572Y-149002762D01*
X141503429Y-149459905D01*
X141998667Y-149459905D01*
X142227238Y-148659905D02*
X142493905Y-149459905D01*
X142760572Y-148659905D01*
X144119620Y-148659905D02*
X143738667Y-148659905D01*
X143700572Y-149040857D01*
X143738667Y-149002762D01*
X143814858Y-148964667D01*
X144005334Y-148964667D01*
X144081524Y-149002762D01*
X144119620Y-149040857D01*
X144157715Y-149117048D01*
X144157715Y-149307524D01*
X144119620Y-149383714D01*
X144081524Y-149421810D01*
X144005334Y-149459905D01*
X143814858Y-149459905D01*
X143738667Y-149421810D01*
X143700572Y-149383714D01*
X144386286Y-148659905D02*
X144652953Y-149459905D01*
X144919620Y-148659905D01*
X145669143Y-148736095D02*
X145707238Y-148698000D01*
X145783429Y-148659905D01*
X145973905Y-148659905D01*
X146050095Y-148698000D01*
X146088191Y-148736095D01*
X146126286Y-148812286D01*
X146126286Y-148888476D01*
X146088191Y-149002762D01*
X145631048Y-149459905D01*
X146126286Y-149459905D01*
X146469143Y-149383714D02*
X146507238Y-149421810D01*
X146469143Y-149459905D01*
X146431048Y-149421810D01*
X146469143Y-149383714D01*
X146469143Y-149459905D01*
X146964381Y-149002762D02*
X146888190Y-148964667D01*
X146850095Y-148926571D01*
X146812000Y-148850381D01*
X146812000Y-148812286D01*
X146850095Y-148736095D01*
X146888190Y-148698000D01*
X146964381Y-148659905D01*
X147116762Y-148659905D01*
X147192952Y-148698000D01*
X147231048Y-148736095D01*
X147269143Y-148812286D01*
X147269143Y-148850381D01*
X147231048Y-148926571D01*
X147192952Y-148964667D01*
X147116762Y-149002762D01*
X146964381Y-149002762D01*
X146888190Y-149040857D01*
X146850095Y-149078952D01*
X146812000Y-149155143D01*
X146812000Y-149307524D01*
X146850095Y-149383714D01*
X146888190Y-149421810D01*
X146964381Y-149459905D01*
X147116762Y-149459905D01*
X147192952Y-149421810D01*
X147231048Y-149383714D01*
X147269143Y-149307524D01*
X147269143Y-149155143D01*
X147231048Y-149078952D01*
X147192952Y-149040857D01*
X147116762Y-149002762D01*
X147497714Y-148659905D02*
X147764381Y-149459905D01*
X148031048Y-148659905D01*
X136525143Y-148736095D02*
X136563238Y-148698000D01*
X136639429Y-148659905D01*
X136829905Y-148659905D01*
X136906095Y-148698000D01*
X136944191Y-148736095D01*
X136982286Y-148812286D01*
X136982286Y-148888476D01*
X136944191Y-149002762D01*
X136487048Y-149459905D01*
X136982286Y-149459905D01*
X137325143Y-149383714D02*
X137363238Y-149421810D01*
X137325143Y-149459905D01*
X137287048Y-149421810D01*
X137325143Y-149383714D01*
X137325143Y-149459905D01*
X137820381Y-149002762D02*
X137744190Y-148964667D01*
X137706095Y-148926571D01*
X137668000Y-148850381D01*
X137668000Y-148812286D01*
X137706095Y-148736095D01*
X137744190Y-148698000D01*
X137820381Y-148659905D01*
X137972762Y-148659905D01*
X138048952Y-148698000D01*
X138087048Y-148736095D01*
X138125143Y-148812286D01*
X138125143Y-148850381D01*
X138087048Y-148926571D01*
X138048952Y-148964667D01*
X137972762Y-149002762D01*
X137820381Y-149002762D01*
X137744190Y-149040857D01*
X137706095Y-149078952D01*
X137668000Y-149155143D01*
X137668000Y-149307524D01*
X137706095Y-149383714D01*
X137744190Y-149421810D01*
X137820381Y-149459905D01*
X137972762Y-149459905D01*
X138048952Y-149421810D01*
X138087048Y-149383714D01*
X138125143Y-149307524D01*
X138125143Y-149155143D01*
X138087048Y-149078952D01*
X138048952Y-149040857D01*
X137972762Y-149002762D01*
X138353714Y-148659905D02*
X138620381Y-149459905D01*
X138887048Y-148659905D01*
X134975620Y-148659905D02*
X134594667Y-148659905D01*
X134556572Y-149040857D01*
X134594667Y-149002762D01*
X134670858Y-148964667D01*
X134861334Y-148964667D01*
X134937524Y-149002762D01*
X134975620Y-149040857D01*
X135013715Y-149117048D01*
X135013715Y-149307524D01*
X134975620Y-149383714D01*
X134937524Y-149421810D01*
X134861334Y-149459905D01*
X134670858Y-149459905D01*
X134594667Y-149421810D01*
X134556572Y-149383714D01*
X135242286Y-148659905D02*
X135508953Y-149459905D01*
X135775620Y-148659905D01*
X132092762Y-149459905D02*
X131635619Y-149459905D01*
X131864190Y-149459905D02*
X131864190Y-148659905D01*
X131788000Y-148774190D01*
X131711809Y-148850381D01*
X131635619Y-148888476D01*
X132397524Y-148736095D02*
X132435619Y-148698000D01*
X132511810Y-148659905D01*
X132702286Y-148659905D01*
X132778476Y-148698000D01*
X132816572Y-148736095D01*
X132854667Y-148812286D01*
X132854667Y-148888476D01*
X132816572Y-149002762D01*
X132359429Y-149459905D01*
X132854667Y-149459905D01*
X133083238Y-148659905D02*
X133349905Y-149459905D01*
X133616572Y-148659905D01*
D11*
X135128000Y-116078000D02*
X137668000Y-116078000D01*
D13*
X135159905Y-115244571D02*
X135493239Y-115244571D01*
X135636096Y-115768381D02*
X135159905Y-115768381D01*
X135159905Y-114768381D01*
X135636096Y-114768381D01*
X136064667Y-115768381D02*
X136064667Y-114768381D01*
X136636096Y-115768381D01*
X136636096Y-114768381D01*
X137636096Y-114816000D02*
X137540858Y-114768381D01*
X137398001Y-114768381D01*
X137255143Y-114816000D01*
X137159905Y-114911238D01*
X137112286Y-115006476D01*
X137064667Y-115196952D01*
X137064667Y-115339810D01*
X137112286Y-115530286D01*
X137159905Y-115625524D01*
X137255143Y-115720762D01*
X137398001Y-115768381D01*
X137493239Y-115768381D01*
X137636096Y-115720762D01*
X137683715Y-115673143D01*
X137683715Y-115339810D01*
X137493239Y-115339810D01*
X135215429Y-122864571D02*
X134882095Y-122864571D01*
X134882095Y-123388381D02*
X134882095Y-122388381D01*
X135358286Y-122388381D01*
X135691619Y-123102667D02*
X136167810Y-123102667D01*
X135596381Y-123388381D02*
X135929714Y-122388381D01*
X136263048Y-123388381D01*
X136596381Y-123388381D02*
X136596381Y-122388381D01*
X137548762Y-123388381D02*
X137072571Y-123388381D01*
X137072571Y-122388381D01*
X117125905Y-112958571D02*
X117459239Y-112958571D01*
X117602096Y-113482381D02*
X117125905Y-113482381D01*
X117125905Y-112482381D01*
X117602096Y-112482381D01*
X118030667Y-113482381D02*
X118030667Y-112482381D01*
X118602096Y-113482381D01*
X118602096Y-112482381D01*
X119602096Y-112530000D02*
X119506858Y-112482381D01*
X119364001Y-112482381D01*
X119221143Y-112530000D01*
X119125905Y-112625238D01*
X119078286Y-112720476D01*
X119030667Y-112910952D01*
X119030667Y-113053810D01*
X119078286Y-113244286D01*
X119125905Y-113339524D01*
X119221143Y-113434762D01*
X119364001Y-113482381D01*
X119459239Y-113482381D01*
X119602096Y-113434762D01*
X119649715Y-113387143D01*
X119649715Y-113053810D01*
X119459239Y-113053810D01*
X118451429Y-122864571D02*
X118118095Y-122864571D01*
X118118095Y-123388381D02*
X118118095Y-122388381D01*
X118594286Y-122388381D01*
X118927619Y-123102667D02*
X119403810Y-123102667D01*
X118832381Y-123388381D02*
X119165714Y-122388381D01*
X119499048Y-123388381D01*
X119832381Y-123388381D02*
X119832381Y-122388381D01*
X120784762Y-123388381D02*
X120308571Y-123388381D01*
X120308571Y-122388381D01*
X137060940Y-113438940D02*
X137259060Y-113438940D01*
X137259060Y-113438940D02*
X137259060Y-113637060D01*
X137060940Y-113637060D02*
X137259060Y-113637060D01*
X137060940Y-113438940D02*
X137060940Y-113637060D01*
X137609580Y-112839500D02*
X137957560Y-112839500D01*
X137957560Y-112839500D02*
X137957560Y-113088420D01*
X137609580Y-113088420D02*
X137957560Y-113088420D01*
X137609580Y-112839500D02*
X137609580Y-113088420D01*
X137957560Y-112839500D02*
X138059160Y-112839500D01*
X138059160Y-112839500D02*
X138059160Y-114035840D01*
X137957560Y-114035840D02*
X138059160Y-114035840D01*
X137957560Y-112839500D02*
X137957560Y-114035840D01*
X137957560Y-114086640D02*
X138059160Y-114086640D01*
X138059160Y-114086640D02*
X138059160Y-114236500D01*
X137957560Y-114236500D02*
X138059160Y-114236500D01*
X137957560Y-114086640D02*
X137957560Y-114236500D01*
X136260840Y-112839500D02*
X136362440Y-112839500D01*
X136362440Y-112839500D02*
X136362440Y-114035840D01*
X136260840Y-114035840D02*
X136362440Y-114035840D01*
X136260840Y-112839500D02*
X136260840Y-114035840D01*
X136260840Y-114086640D02*
X136362440Y-114086640D01*
X136362440Y-114086640D02*
X136362440Y-114236500D01*
X136260840Y-114236500D02*
X136362440Y-114236500D01*
X136260840Y-114086640D02*
X136260840Y-114236500D01*
X137609580Y-112839500D02*
X137759440Y-112839500D01*
X137759440Y-112839500D02*
X137759440Y-113088420D01*
X137609580Y-113088420D02*
X137759440Y-113088420D01*
X137609580Y-112839500D02*
X137609580Y-113088420D01*
X138709400Y-112788700D02*
X135610600Y-112788700D01*
X135610600Y-112788700D02*
X135610600Y-114287300D01*
X135610600Y-114287300D02*
X138709400Y-114287300D01*
X138709400Y-114287300D02*
X138709400Y-112788700D01*
X136612738Y-113038646D02*
G75*
G02X137708640Y-113040160I547262J-499354D01*
G01*
X136611867Y-114036398D02*
G75*
G02X136611360Y-113040160I548133J498398D01*
G01*
X137707262Y-114037354D02*
G75*
G02X136611360Y-114035840I-547262J499354D01*
G01*
X137708133Y-113039602D02*
G75*
G02X137708640Y-114035840I-548133J-498398D01*
G01*
X118264940Y-114962940D02*
X118463060Y-114962940D01*
X118463060Y-114962940D02*
X118463060Y-115161060D01*
X118264940Y-115161060D02*
X118463060Y-115161060D01*
X118264940Y-114962940D02*
X118264940Y-115161060D01*
X118813580Y-114363500D02*
X119161560Y-114363500D01*
X119161560Y-114363500D02*
X119161560Y-114612420D01*
X118813580Y-114612420D02*
X119161560Y-114612420D01*
X118813580Y-114363500D02*
X118813580Y-114612420D01*
X119161560Y-114363500D02*
X119263160Y-114363500D01*
X119263160Y-114363500D02*
X119263160Y-115559840D01*
X119161560Y-115559840D02*
X119263160Y-115559840D01*
X119161560Y-114363500D02*
X119161560Y-115559840D01*
X119161560Y-115610640D02*
X119263160Y-115610640D01*
X119263160Y-115610640D02*
X119263160Y-115760500D01*
X119161560Y-115760500D02*
X119263160Y-115760500D01*
X119161560Y-115610640D02*
X119161560Y-115760500D01*
X117464840Y-114363500D02*
X117566440Y-114363500D01*
X117566440Y-114363500D02*
X117566440Y-115559840D01*
X117464840Y-115559840D02*
X117566440Y-115559840D01*
X117464840Y-114363500D02*
X117464840Y-115559840D01*
X117464840Y-115610640D02*
X117566440Y-115610640D01*
X117566440Y-115610640D02*
X117566440Y-115760500D01*
X117464840Y-115760500D02*
X117566440Y-115760500D01*
X117464840Y-115610640D02*
X117464840Y-115760500D01*
X118813580Y-114363500D02*
X118963440Y-114363500D01*
X118963440Y-114363500D02*
X118963440Y-114612420D01*
X118813580Y-114612420D02*
X118963440Y-114612420D01*
X118813580Y-114363500D02*
X118813580Y-114612420D01*
X119913400Y-114312700D02*
X116814600Y-114312700D01*
X116814600Y-114312700D02*
X116814600Y-115811300D01*
X116814600Y-115811300D02*
X119913400Y-115811300D01*
X119913400Y-115811300D02*
X119913400Y-114312700D01*
X117816738Y-114562646D02*
G75*
G02X118912640Y-114564160I547262J-499354D01*
G01*
X117815867Y-115560398D02*
G75*
G02X117815360Y-114564160I548133J498398D01*
G01*
X118911262Y-115561354D02*
G75*
G02X117815360Y-115559840I-547262J499354D01*
G01*
X118912133Y-114563602D02*
G75*
G02X118912640Y-115559840I-548133J-498398D01*
G01*
X119280940Y-120804940D02*
X119479060Y-120804940D01*
X119479060Y-120804940D02*
X119479060Y-121003060D01*
X119280940Y-121003060D02*
X119479060Y-121003060D01*
X119280940Y-120804940D02*
X119280940Y-121003060D01*
X119829580Y-120205500D02*
X120177560Y-120205500D01*
X120177560Y-120205500D02*
X120177560Y-120454420D01*
X119829580Y-120454420D02*
X120177560Y-120454420D01*
X119829580Y-120205500D02*
X119829580Y-120454420D01*
X120177560Y-120205500D02*
X120279160Y-120205500D01*
X120279160Y-120205500D02*
X120279160Y-121401840D01*
X120177560Y-121401840D02*
X120279160Y-121401840D01*
X120177560Y-120205500D02*
X120177560Y-121401840D01*
X120177560Y-121452640D02*
X120279160Y-121452640D01*
X120279160Y-121452640D02*
X120279160Y-121602500D01*
X120177560Y-121602500D02*
X120279160Y-121602500D01*
X120177560Y-121452640D02*
X120177560Y-121602500D01*
X118480840Y-120205500D02*
X118582440Y-120205500D01*
X118582440Y-120205500D02*
X118582440Y-121401840D01*
X118480840Y-121401840D02*
X118582440Y-121401840D01*
X118480840Y-120205500D02*
X118480840Y-121401840D01*
X118480840Y-121452640D02*
X118582440Y-121452640D01*
X118582440Y-121452640D02*
X118582440Y-121602500D01*
X118480840Y-121602500D02*
X118582440Y-121602500D01*
X118480840Y-121452640D02*
X118480840Y-121602500D01*
X119829580Y-120205500D02*
X119979440Y-120205500D01*
X119979440Y-120205500D02*
X119979440Y-120454420D01*
X119829580Y-120454420D02*
X119979440Y-120454420D01*
X119829580Y-120205500D02*
X119829580Y-120454420D01*
X120929400Y-120154700D02*
X117830600Y-120154700D01*
X117830600Y-120154700D02*
X117830600Y-121653300D01*
X117830600Y-121653300D02*
X120929400Y-121653300D01*
X120929400Y-121653300D02*
X120929400Y-120154700D01*
X118832738Y-120404646D02*
G75*
G02X119928640Y-120406160I547262J-499354D01*
G01*
X118831867Y-121402398D02*
G75*
G02X118831360Y-120406160I548133J498398D01*
G01*
X119927262Y-121403354D02*
G75*
G02X118831360Y-121401840I-547262J499354D01*
G01*
X119928133Y-120405602D02*
G75*
G02X119928640Y-121401840I-548133J-498398D01*
G01*
X136044940Y-120804940D02*
X136243060Y-120804940D01*
X136243060Y-120804940D02*
X136243060Y-121003060D01*
X136044940Y-121003060D02*
X136243060Y-121003060D01*
X136044940Y-120804940D02*
X136044940Y-121003060D01*
X136593580Y-120205500D02*
X136941560Y-120205500D01*
X136941560Y-120205500D02*
X136941560Y-120454420D01*
X136593580Y-120454420D02*
X136941560Y-120454420D01*
X136593580Y-120205500D02*
X136593580Y-120454420D01*
X136941560Y-120205500D02*
X137043160Y-120205500D01*
X137043160Y-120205500D02*
X137043160Y-121401840D01*
X136941560Y-121401840D02*
X137043160Y-121401840D01*
X136941560Y-120205500D02*
X136941560Y-121401840D01*
X136941560Y-121452640D02*
X137043160Y-121452640D01*
X137043160Y-121452640D02*
X137043160Y-121602500D01*
X136941560Y-121602500D02*
X137043160Y-121602500D01*
X136941560Y-121452640D02*
X136941560Y-121602500D01*
X135244840Y-120205500D02*
X135346440Y-120205500D01*
X135346440Y-120205500D02*
X135346440Y-121401840D01*
X135244840Y-121401840D02*
X135346440Y-121401840D01*
X135244840Y-120205500D02*
X135244840Y-121401840D01*
X135244840Y-121452640D02*
X135346440Y-121452640D01*
X135346440Y-121452640D02*
X135346440Y-121602500D01*
X135244840Y-121602500D02*
X135346440Y-121602500D01*
X135244840Y-121452640D02*
X135244840Y-121602500D01*
X136593580Y-120205500D02*
X136743440Y-120205500D01*
X136743440Y-120205500D02*
X136743440Y-120454420D01*
X136593580Y-120454420D02*
X136743440Y-120454420D01*
X136593580Y-120205500D02*
X136593580Y-120454420D01*
X137693400Y-120154700D02*
X134594600Y-120154700D01*
X134594600Y-120154700D02*
X134594600Y-121653300D01*
X134594600Y-121653300D02*
X137693400Y-121653300D01*
X137693400Y-121653300D02*
X137693400Y-120154700D01*
X135596738Y-120404646D02*
G75*
G02X136692640Y-120406160I547262J-499354D01*
G01*
X135595867Y-121402398D02*
G75*
G02X135595360Y-120406160I548133J498398D01*
G01*
X136691262Y-121403354D02*
G75*
G02X135595360Y-121401840I-547262J499354D01*
G01*
X136692133Y-120405602D02*
G75*
G02X136692640Y-121401840I-548133J-498398D01*
G01*
X132334000Y-143256000D02*
X132334000Y-142748000D01*
X132842000Y-143256000D02*
X132842000Y-142748000D01*
X134874000Y-143256000D02*
X134874000Y-142748000D01*
X135382000Y-143256000D02*
X135382000Y-142748000D01*
X137414000Y-143256000D02*
X137414000Y-142748000D01*
X137922000Y-143256000D02*
X137922000Y-142748000D01*
X135382000Y-145796000D02*
X135382000Y-145288000D01*
X134874000Y-145796000D02*
X134874000Y-145288000D01*
X132842000Y-145796000D02*
X132842000Y-145288000D01*
X132334000Y-145796000D02*
X132334000Y-145288000D01*
X137922000Y-145796000D02*
X137922000Y-145288000D01*
X137414000Y-145796000D02*
X137414000Y-145288000D01*
X139218000Y-141732000D02*
X139218000Y-140582000D01*
X139218000Y-140582000D02*
X137668000Y-140582000D01*
X136398000Y-145796000D02*
X133858000Y-145796000D01*
X133858000Y-145796000D02*
X133858000Y-148336000D01*
X133858000Y-148336000D02*
X136398000Y-148336000D01*
X131318000Y-145796000D02*
X131318000Y-148336000D01*
X131318000Y-148336000D02*
X133858000Y-148336000D01*
X131318000Y-145796000D02*
X131318000Y-148336000D01*
X133858000Y-145796000D02*
X131318000Y-145796000D01*
X133858000Y-145796000D02*
X133858000Y-148336000D01*
X136398000Y-145796000D02*
X136398000Y-148336000D01*
X136398000Y-148336000D02*
X138938000Y-148336000D01*
X136398000Y-145796000D02*
X136398000Y-148336000D01*
X138938000Y-145796000D02*
X136398000Y-145796000D01*
X138938000Y-145796000D02*
X138938000Y-148336000D01*
X141478000Y-143256000D02*
X141478000Y-142748000D01*
X141986000Y-143256000D02*
X141986000Y-142748000D01*
X144018000Y-143256000D02*
X144018000Y-142748000D01*
X144526000Y-143256000D02*
X144526000Y-142748000D01*
X146558000Y-143256000D02*
X146558000Y-142748000D01*
X147066000Y-143256000D02*
X147066000Y-142748000D01*
X144526000Y-145796000D02*
X144526000Y-145288000D01*
X144018000Y-145796000D02*
X144018000Y-145288000D01*
X141986000Y-145796000D02*
X141986000Y-145288000D01*
X141478000Y-145796000D02*
X141478000Y-145288000D01*
X147066000Y-145796000D02*
X147066000Y-145288000D01*
X146558000Y-145796000D02*
X146558000Y-145288000D01*
X148362000Y-141732000D02*
X148362000Y-140582000D01*
X148362000Y-140582000D02*
X146812000Y-140582000D01*
X145542000Y-145796000D02*
X143002000Y-145796000D01*
X143002000Y-145796000D02*
X143002000Y-148336000D01*
X143002000Y-148336000D02*
X145542000Y-148336000D01*
X140462000Y-145796000D02*
X140462000Y-148336000D01*
X140462000Y-148336000D02*
X143002000Y-148336000D01*
X140462000Y-145796000D02*
X140462000Y-148336000D01*
X143002000Y-145796000D02*
X140462000Y-145796000D01*
X143002000Y-145796000D02*
X143002000Y-148336000D01*
X145542000Y-145796000D02*
X145542000Y-148336000D01*
X145542000Y-148336000D02*
X148082000Y-148336000D01*
X145542000Y-145796000D02*
X145542000Y-148336000D01*
X148082000Y-145796000D02*
X145542000Y-145796000D01*
X148082000Y-145796000D02*
X148082000Y-148336000D01*
X147548000Y-112076000D02*
X137948000Y-112076000D01*
X137948000Y-100076000D02*
X137948000Y-112076000D01*
X147548000Y-100076000D02*
X147548000Y-112076000D01*
X138598000Y-100076000D02*
X137948000Y-100076000D01*
X146898000Y-100076000D02*
X147548000Y-100076000D01*
X146898000Y-91076000D02*
X138598000Y-91076000D01*
X138598000Y-100076000D02*
X138598000Y-91076000D01*
X146898000Y-100076000D02*
X146898000Y-91076000D01*
X133832000Y-112076000D02*
X124232000Y-112076000D01*
X124232000Y-100076000D02*
X124232000Y-112076000D01*
X133832000Y-100076000D02*
X133832000Y-112076000D01*
X124882000Y-100076000D02*
X124232000Y-100076000D01*
X133182000Y-100076000D02*
X133832000Y-100076000D01*
X133182000Y-91076000D02*
X124882000Y-91076000D01*
X124882000Y-100076000D02*
X124882000Y-91076000D01*
X133182000Y-100076000D02*
X133182000Y-91076000D01*
X136551000Y-134519000D02*
X136551000Y-134744000D01*
X139801000Y-134519000D02*
X139801000Y-134744000D01*
X139801000Y-137769000D02*
X139801000Y-137544000D01*
X136551000Y-137769000D02*
X136551000Y-137544000D01*
X136551000Y-134519000D02*
X139801000Y-134519000D01*
X136551000Y-137769000D02*
X139801000Y-137769000D01*
X136551000Y-134744000D02*
X135476000Y-134744000D01*
X120547000Y-134009000D02*
X120547000Y-133709000D01*
X117197000Y-134009000D02*
X117197000Y-133709000D01*
X117197000Y-130659000D02*
X117197000Y-130959000D01*
X120547000Y-130659000D02*
X120547000Y-130959000D01*
X120547000Y-134009000D02*
X117197000Y-134009000D01*
X120547000Y-130659000D02*
X117197000Y-130659000D01*
X120547000Y-133709000D02*
X121772000Y-133709000D01*
X113740000Y-100156000D02*
X114340000Y-100156000D01*
X114340000Y-97656000D02*
X114340000Y-100156000D01*
X119340000Y-100156000D02*
X119340000Y-97656000D01*
X119340000Y-97656000D02*
X114340000Y-97656000D01*
X119940000Y-111656000D02*
X113740000Y-111656000D01*
X119940000Y-100156000D02*
X119940000Y-111656000D01*
X113740000Y-100156000D02*
X113740000Y-111656000D01*
X119940000Y-100156000D02*
X119340000Y-100156000D01*
X102564000Y-100156000D02*
X103164000Y-100156000D01*
X103164000Y-97656000D02*
X103164000Y-100156000D01*
X108164000Y-100156000D02*
X108164000Y-97656000D01*
X108164000Y-97656000D02*
X103164000Y-97656000D01*
X108764000Y-111656000D02*
X102564000Y-111656000D01*
X108764000Y-100156000D02*
X108764000Y-111656000D01*
X102564000Y-100156000D02*
X102564000Y-111656000D01*
X108764000Y-100156000D02*
X108164000Y-100156000D01*
X144823000Y-121955000D02*
X144823000Y-121810000D01*
X140673000Y-121955000D02*
X140673000Y-121810000D01*
X140673000Y-116805000D02*
X140673000Y-116950000D01*
X144823000Y-116805000D02*
X144823000Y-116950000D01*
X144823000Y-121955000D02*
X140673000Y-121955000D01*
X144823000Y-116805000D02*
X140673000Y-116805000D01*
X144823000Y-121810000D02*
X146223000Y-121810000D01*
X128059000Y-121955000D02*
X128059000Y-121810000D01*
X123909000Y-121955000D02*
X123909000Y-121810000D01*
X123909000Y-116805000D02*
X123909000Y-116950000D01*
X128059000Y-116805000D02*
X128059000Y-116950000D01*
X128059000Y-121955000D02*
X123909000Y-121955000D01*
X128059000Y-116805000D02*
X123909000Y-116805000D01*
X128059000Y-121810000D02*
X129459000Y-121810000D01*
X137676000Y-133946000D02*
X138676000Y-133946000D01*
X138676000Y-132246000D02*
X137676000Y-132246000D01*
X146978000Y-120912000D02*
X146978000Y-121912000D01*
X148678000Y-121912000D02*
X148678000Y-120912000D01*
X130214000Y-120912000D02*
X130214000Y-121912000D01*
X131914000Y-121912000D02*
X131914000Y-120912000D01*
X142756000Y-116166000D02*
X143756000Y-116166000D01*
X143756000Y-114466000D02*
X142756000Y-114466000D01*
X125484000Y-116166000D02*
X126484000Y-116166000D01*
X126484000Y-114466000D02*
X125484000Y-114466000D01*
X146978000Y-113800000D02*
X146978000Y-114800000D01*
X148678000Y-114800000D02*
X148678000Y-113800000D01*
X136486000Y-104640000D02*
X136486000Y-103640000D01*
X134786000Y-103640000D02*
X134786000Y-104640000D01*
X119118000Y-134786000D02*
X118118000Y-134786000D01*
X118118000Y-136486000D02*
X119118000Y-136486000D01*
X146953000Y-118456000D02*
X146953000Y-117256000D01*
X148703000Y-117256000D02*
X148703000Y-118456000D01*
X130189000Y-118456000D02*
X130189000Y-117256000D01*
X131939000Y-117256000D02*
X131939000Y-118456000D01*
X136236000Y-119239000D02*
X135036000Y-119239000D01*
X135036000Y-117489000D02*
X136236000Y-117489000D01*
X119472000Y-119239000D02*
X118272000Y-119239000D01*
X118272000Y-117489000D02*
X119472000Y-117489000D01*
D14*
X110252000Y-143764000D02*
X110252000Y-145248000D01*
X110252000Y-141732000D02*
X110752000Y-141732000D01*
X110752000Y-141732000D02*
X110752000Y-143764000D01*
X110752000Y-143764000D02*
X110252000Y-143764000D01*
X127492000Y-140248000D02*
X127492000Y-145248000D01*
X127492000Y-145248000D02*
X110252000Y-145248000D01*
X110252000Y-141732000D02*
X110252000Y-140248000D01*
X110252000Y-140248000D02*
X127492000Y-140248000D01*
D13*
X105410000Y-116586000D02*
X105410000Y-149606000D01*
X105410000Y-149606000D02*
X107950000Y-149606000D01*
X107950000Y-149606000D02*
X107950000Y-116586000D01*
X108230000Y-113766000D02*
X108230000Y-115316000D01*
X107950000Y-116586000D02*
X105410000Y-116586000D01*
X105130000Y-115316000D02*
X105130000Y-113766000D01*
X105130000Y-113766000D02*
X108230000Y-113766000D01*
X113030000Y-130302000D02*
X113030000Y-117602000D01*
X113030000Y-117602000D02*
X110490000Y-117602000D01*
X110490000Y-117602000D02*
X110490000Y-130302000D01*
X113310000Y-133122000D02*
X113310000Y-131572000D01*
X113030000Y-130302000D02*
X110490000Y-130302000D01*
X110210000Y-131572000D02*
X110210000Y-133122000D01*
X110210000Y-133122000D02*
X113310000Y-133122000D01*
X145542000Y-132842000D02*
X145542000Y-140462000D01*
X143002000Y-132842000D02*
X143002000Y-140462000D01*
X142722000Y-130022000D02*
X142722000Y-131572000D01*
X145542000Y-140462000D02*
X143002000Y-140462000D01*
X143002000Y-132842000D02*
X145542000Y-132842000D01*
X145822000Y-131572000D02*
X145822000Y-130022000D01*
X145822000Y-130022000D02*
X142722000Y-130022000D01*
X139841000Y-132426000D02*
X139841000Y-131226000D01*
X141591000Y-131226000D02*
X141591000Y-132426000D01*
X130464000Y-131459000D02*
X131664000Y-131459000D01*
X131664000Y-133209000D02*
X130464000Y-133209000D01*
X134966000Y-133971000D02*
X133766000Y-133971000D01*
X133766000Y-132221000D02*
X134966000Y-132221000D01*
X128546000Y-129748000D02*
G75*
G03X128546000Y-129748000I-100000J0D01*
G01*
X128196000Y-130298000D02*
X128196000Y-129798000D01*
X125296000Y-130298000D02*
X128196000Y-130298000D01*
X125296000Y-129798000D02*
X125296000Y-130298000D01*
X128196000Y-129798000D02*
X125296000Y-129798000D01*
X139196000Y-115570000D02*
X138946000Y-115570000D01*
X139696000Y-115570000D02*
X139946000Y-115570000D01*
X139696000Y-115570000D02*
X139196000Y-115920000D01*
X139196000Y-115920000D02*
X139196000Y-115220000D01*
X139196000Y-115220000D02*
X139696000Y-115570000D01*
X139696000Y-115920000D02*
X139696000Y-115220000D01*
X140746000Y-114770000D02*
X138346000Y-114770000D01*
X140746000Y-116370000D02*
X138346000Y-116370000D01*
X121924000Y-115062000D02*
X121674000Y-115062000D01*
X122424000Y-115062000D02*
X122674000Y-115062000D01*
X122424000Y-115062000D02*
X121924000Y-115412000D01*
X121924000Y-115412000D02*
X121924000Y-114712000D01*
X121924000Y-114712000D02*
X122424000Y-115062000D01*
X122424000Y-115412000D02*
X122424000Y-114712000D01*
X123474000Y-114262000D02*
X121074000Y-114262000D01*
X123474000Y-115862000D02*
X121074000Y-115862000D01*
X144530000Y-113284000D02*
X144280000Y-113284000D01*
X145030000Y-113284000D02*
X145280000Y-113284000D01*
X145030000Y-113284000D02*
X144530000Y-113634000D01*
X144530000Y-113634000D02*
X144530000Y-112934000D01*
X144530000Y-112934000D02*
X145030000Y-113284000D01*
X145030000Y-113634000D02*
X145030000Y-112934000D01*
X146080000Y-112484000D02*
X143680000Y-112484000D01*
X146080000Y-114084000D02*
X143680000Y-114084000D01*
X132338000Y-113284000D02*
X132088000Y-113284000D01*
X132838000Y-113284000D02*
X133088000Y-113284000D01*
X132838000Y-113284000D02*
X132338000Y-113634000D01*
X132338000Y-113634000D02*
X132338000Y-112934000D01*
X132338000Y-112934000D02*
X132838000Y-113284000D01*
X132838000Y-113634000D02*
X132838000Y-112934000D01*
X133888000Y-112484000D02*
X131488000Y-112484000D01*
X133888000Y-114084000D02*
X131488000Y-114084000D01*
D12*
X135807524Y-112375905D02*
X135807524Y-111575905D01*
X135998000Y-111575905D01*
X136112286Y-111614000D01*
X136188477Y-111690190D01*
X136226572Y-111766381D01*
X136264667Y-111918762D01*
X136264667Y-112033048D01*
X136226572Y-112185429D01*
X136188477Y-112261619D01*
X136112286Y-112337810D01*
X135998000Y-112375905D01*
X135807524Y-112375905D01*
X136531334Y-111575905D02*
X137026572Y-111575905D01*
X136759905Y-111880667D01*
X136874191Y-111880667D01*
X136950381Y-111918762D01*
X136988477Y-111956857D01*
X137026572Y-112033048D01*
X137026572Y-112223524D01*
X136988477Y-112299714D01*
X136950381Y-112337810D01*
X136874191Y-112375905D01*
X136645619Y-112375905D01*
X136569429Y-112337810D01*
X136531334Y-112299714D01*
X116503524Y-116947905D02*
X116503524Y-116147905D01*
X116694000Y-116147905D01*
X116808286Y-116186000D01*
X116884477Y-116262190D01*
X116922572Y-116338381D01*
X116960667Y-116490762D01*
X116960667Y-116605048D01*
X116922572Y-116757429D01*
X116884477Y-116833619D01*
X116808286Y-116909810D01*
X116694000Y-116947905D01*
X116503524Y-116947905D01*
X117684477Y-116147905D02*
X117303524Y-116147905D01*
X117265429Y-116528857D01*
X117303524Y-116490762D01*
X117379715Y-116452667D01*
X117570191Y-116452667D01*
X117646381Y-116490762D01*
X117684477Y-116528857D01*
X117722572Y-116605048D01*
X117722572Y-116795524D01*
X117684477Y-116871714D01*
X117646381Y-116909810D01*
X117570191Y-116947905D01*
X117379715Y-116947905D01*
X117303524Y-116909810D01*
X117265429Y-116871714D01*
X115487524Y-121265905D02*
X115487524Y-120465905D01*
X115678000Y-120465905D01*
X115792286Y-120504000D01*
X115868477Y-120580190D01*
X115906572Y-120656381D01*
X115944667Y-120808762D01*
X115944667Y-120923048D01*
X115906572Y-121075429D01*
X115868477Y-121151619D01*
X115792286Y-121227810D01*
X115678000Y-121265905D01*
X115487524Y-121265905D01*
X116249429Y-120542095D02*
X116287524Y-120504000D01*
X116363715Y-120465905D01*
X116554191Y-120465905D01*
X116630381Y-120504000D01*
X116668477Y-120542095D01*
X116706572Y-120618286D01*
X116706572Y-120694476D01*
X116668477Y-120808762D01*
X116211334Y-121265905D01*
X116706572Y-121265905D01*
X132505524Y-121265905D02*
X132505524Y-120465905D01*
X132696000Y-120465905D01*
X132810286Y-120504000D01*
X132886477Y-120580190D01*
X132924572Y-120656381D01*
X132962667Y-120808762D01*
X132962667Y-120923048D01*
X132924572Y-121075429D01*
X132886477Y-121151619D01*
X132810286Y-121227810D01*
X132696000Y-121265905D01*
X132505524Y-121265905D01*
X133724572Y-121265905D02*
X133267429Y-121265905D01*
X133496000Y-121265905D02*
X133496000Y-120465905D01*
X133419810Y-120580190D01*
X133343619Y-120656381D01*
X133267429Y-120694476D01*
X134156571Y-147173905D02*
X134156571Y-146373905D01*
X134461333Y-146373905D01*
X134537524Y-146412000D01*
X134575619Y-146450095D01*
X134613714Y-146526286D01*
X134613714Y-146640571D01*
X134575619Y-146716762D01*
X134537524Y-146754857D01*
X134461333Y-146792952D01*
X134156571Y-146792952D01*
X135375619Y-147173905D02*
X134918476Y-147173905D01*
X135147047Y-147173905D02*
X135147047Y-146373905D01*
X135070857Y-146488190D01*
X134994666Y-146564381D01*
X134918476Y-146602476D01*
X135680381Y-146450095D02*
X135718476Y-146412000D01*
X135794667Y-146373905D01*
X135985143Y-146373905D01*
X136061333Y-146412000D01*
X136099429Y-146450095D01*
X136137524Y-146526286D01*
X136137524Y-146602476D01*
X136099429Y-146716762D01*
X135642286Y-147173905D01*
X136137524Y-147173905D01*
X143300571Y-147173905D02*
X143300571Y-146373905D01*
X143605333Y-146373905D01*
X143681524Y-146412000D01*
X143719619Y-146450095D01*
X143757714Y-146526286D01*
X143757714Y-146640571D01*
X143719619Y-146716762D01*
X143681524Y-146754857D01*
X143605333Y-146792952D01*
X143300571Y-146792952D01*
X144519619Y-147173905D02*
X144062476Y-147173905D01*
X144291047Y-147173905D02*
X144291047Y-146373905D01*
X144214857Y-146488190D01*
X144138666Y-146564381D01*
X144062476Y-146602476D01*
X145281524Y-147173905D02*
X144824381Y-147173905D01*
X145052952Y-147173905D02*
X145052952Y-146373905D01*
X144976762Y-146488190D01*
X144900571Y-146564381D01*
X144824381Y-146602476D01*
X137521905Y-106762476D02*
X136721905Y-106762476D01*
X136721905Y-106457714D01*
X136760000Y-106381523D01*
X136798095Y-106343428D01*
X136874286Y-106305333D01*
X136988571Y-106305333D01*
X137064762Y-106343428D01*
X137102857Y-106381523D01*
X137140952Y-106457714D01*
X137140952Y-106762476D01*
X136721905Y-105619619D02*
X136721905Y-105772000D01*
X136760000Y-105848190D01*
X136798095Y-105886285D01*
X136912381Y-105962476D01*
X137064762Y-106000571D01*
X137369524Y-106000571D01*
X137445714Y-105962476D01*
X137483810Y-105924381D01*
X137521905Y-105848190D01*
X137521905Y-105695809D01*
X137483810Y-105619619D01*
X137445714Y-105581523D01*
X137369524Y-105543428D01*
X137179048Y-105543428D01*
X137102857Y-105581523D01*
X137064762Y-105619619D01*
X137026667Y-105695809D01*
X137026667Y-105848190D01*
X137064762Y-105924381D01*
X137102857Y-105962476D01*
X137179048Y-106000571D01*
X123805905Y-106762476D02*
X123005905Y-106762476D01*
X123005905Y-106457714D01*
X123044000Y-106381523D01*
X123082095Y-106343428D01*
X123158286Y-106305333D01*
X123272571Y-106305333D01*
X123348762Y-106343428D01*
X123386857Y-106381523D01*
X123424952Y-106457714D01*
X123424952Y-106762476D01*
X123005905Y-106038666D02*
X123005905Y-105505333D01*
X123805905Y-105848190D01*
X137566476Y-138499905D02*
X137566476Y-139147524D01*
X137604571Y-139223714D01*
X137642667Y-139261810D01*
X137718857Y-139299905D01*
X137871238Y-139299905D01*
X137947429Y-139261810D01*
X137985524Y-139223714D01*
X138023619Y-139147524D01*
X138023619Y-138499905D01*
X138823619Y-139299905D02*
X138366476Y-139299905D01*
X138595047Y-139299905D02*
X138595047Y-138499905D01*
X138518857Y-138614190D01*
X138442666Y-138690381D01*
X138366476Y-138728476D01*
X117754476Y-129609905D02*
X117754476Y-130257524D01*
X117792571Y-130333714D01*
X117830667Y-130371810D01*
X117906857Y-130409905D01*
X118059238Y-130409905D01*
X118135429Y-130371810D01*
X118173524Y-130333714D01*
X118211619Y-130257524D01*
X118211619Y-129609905D01*
X118973524Y-129609905D02*
X118592571Y-129609905D01*
X118554476Y-129990857D01*
X118592571Y-129952762D01*
X118668762Y-129914667D01*
X118859238Y-129914667D01*
X118935428Y-129952762D01*
X118973524Y-129990857D01*
X119011619Y-130067048D01*
X119011619Y-130257524D01*
X118973524Y-130333714D01*
X118935428Y-130371810D01*
X118859238Y-130409905D01*
X118668762Y-130409905D01*
X118592571Y-130371810D01*
X118554476Y-130333714D01*
X112185524Y-111359905D02*
X112185524Y-110559905D01*
X112490286Y-110559905D01*
X112566477Y-110598000D01*
X112604572Y-110636095D01*
X112642667Y-110712286D01*
X112642667Y-110826571D01*
X112604572Y-110902762D01*
X112566477Y-110940857D01*
X112490286Y-110978952D01*
X112185524Y-110978952D01*
X113366477Y-110559905D02*
X112985524Y-110559905D01*
X112947429Y-110940857D01*
X112985524Y-110902762D01*
X113061715Y-110864667D01*
X113252191Y-110864667D01*
X113328381Y-110902762D01*
X113366477Y-110940857D01*
X113404572Y-111017048D01*
X113404572Y-111207524D01*
X113366477Y-111283714D01*
X113328381Y-111321810D01*
X113252191Y-111359905D01*
X113061715Y-111359905D01*
X112985524Y-111321810D01*
X112947429Y-111283714D01*
D13*
X115768572Y-110768381D02*
X115768572Y-109768381D01*
X116101906Y-110482667D01*
X116435239Y-109768381D01*
X116435239Y-110768381D01*
X116911429Y-110768381D02*
X116911429Y-109768381D01*
X117387619Y-110768381D02*
X117387619Y-109768381D01*
X117625714Y-109768381D01*
X117768572Y-109816000D01*
X117863810Y-109911238D01*
X117911429Y-110006476D01*
X117959048Y-110196952D01*
X117959048Y-110339810D01*
X117911429Y-110530286D01*
X117863810Y-110625524D01*
X117768572Y-110720762D01*
X117625714Y-110768381D01*
X117387619Y-110768381D01*
X115816191Y-104608381D02*
X116387620Y-104608381D01*
X116101905Y-105608381D02*
X116101905Y-104608381D01*
X116720953Y-105608381D02*
X116720953Y-104608381D01*
X117197143Y-105608381D02*
X117197143Y-104608381D01*
X117578096Y-104608381D01*
X117673334Y-104656000D01*
X117720953Y-104703619D01*
X117768572Y-104798857D01*
X117768572Y-104941714D01*
X117720953Y-105036952D01*
X117673334Y-105084571D01*
X117578096Y-105132190D01*
X117197143Y-105132190D01*
X115840000Y-100508381D02*
X116030477Y-100508381D01*
X116125715Y-100556000D01*
X116220953Y-100651238D01*
X116268572Y-100841714D01*
X116268572Y-101175048D01*
X116220953Y-101365524D01*
X116125715Y-101460762D01*
X116030477Y-101508381D01*
X115840000Y-101508381D01*
X115744762Y-101460762D01*
X115649524Y-101365524D01*
X115601905Y-101175048D01*
X115601905Y-100841714D01*
X115649524Y-100651238D01*
X115744762Y-100556000D01*
X115840000Y-100508381D01*
X116697143Y-100508381D02*
X116697143Y-101317905D01*
X116744762Y-101413143D01*
X116792381Y-101460762D01*
X116887619Y-101508381D01*
X117078096Y-101508381D01*
X117173334Y-101460762D01*
X117220953Y-101413143D01*
X117268572Y-101317905D01*
X117268572Y-100508381D01*
X117601905Y-100508381D02*
X118173334Y-100508381D01*
X117887619Y-101508381D02*
X117887619Y-100508381D01*
D12*
X105073524Y-112629905D02*
X105073524Y-111829905D01*
X105378286Y-111829905D01*
X105454477Y-111868000D01*
X105492572Y-111906095D01*
X105530667Y-111982286D01*
X105530667Y-112096571D01*
X105492572Y-112172762D01*
X105454477Y-112210857D01*
X105378286Y-112248952D01*
X105073524Y-112248952D01*
X106216381Y-112096571D02*
X106216381Y-112629905D01*
X106025905Y-111791810D02*
X105835429Y-112363238D01*
X106330667Y-112363238D01*
D13*
X104592572Y-110768381D02*
X104592572Y-109768381D01*
X104925906Y-110482667D01*
X105259239Y-109768381D01*
X105259239Y-110768381D01*
X105735429Y-110768381D02*
X105735429Y-109768381D01*
X106211619Y-110768381D02*
X106211619Y-109768381D01*
X106449714Y-109768381D01*
X106592572Y-109816000D01*
X106687810Y-109911238D01*
X106735429Y-110006476D01*
X106783048Y-110196952D01*
X106783048Y-110339810D01*
X106735429Y-110530286D01*
X106687810Y-110625524D01*
X106592572Y-110720762D01*
X106449714Y-110768381D01*
X106211619Y-110768381D01*
X104640191Y-104608381D02*
X105211620Y-104608381D01*
X104925905Y-105608381D02*
X104925905Y-104608381D01*
X105544953Y-105608381D02*
X105544953Y-104608381D01*
X106021143Y-105608381D02*
X106021143Y-104608381D01*
X106402096Y-104608381D01*
X106497334Y-104656000D01*
X106544953Y-104703619D01*
X106592572Y-104798857D01*
X106592572Y-104941714D01*
X106544953Y-105036952D01*
X106497334Y-105084571D01*
X106402096Y-105132190D01*
X106021143Y-105132190D01*
X104664000Y-100508381D02*
X104854477Y-100508381D01*
X104949715Y-100556000D01*
X105044953Y-100651238D01*
X105092572Y-100841714D01*
X105092572Y-101175048D01*
X105044953Y-101365524D01*
X104949715Y-101460762D01*
X104854477Y-101508381D01*
X104664000Y-101508381D01*
X104568762Y-101460762D01*
X104473524Y-101365524D01*
X104425905Y-101175048D01*
X104425905Y-100841714D01*
X104473524Y-100651238D01*
X104568762Y-100556000D01*
X104664000Y-100508381D01*
X105521143Y-100508381D02*
X105521143Y-101317905D01*
X105568762Y-101413143D01*
X105616381Y-101460762D01*
X105711619Y-101508381D01*
X105902096Y-101508381D01*
X105997334Y-101460762D01*
X106044953Y-101413143D01*
X106092572Y-101317905D01*
X106092572Y-100508381D01*
X106425905Y-100508381D02*
X106997334Y-100508381D01*
X106711619Y-101508381D02*
X106711619Y-100508381D01*
D12*
X143154476Y-122243905D02*
X143154476Y-122891524D01*
X143192571Y-122967714D01*
X143230667Y-123005810D01*
X143306857Y-123043905D01*
X143459238Y-123043905D01*
X143535429Y-123005810D01*
X143573524Y-122967714D01*
X143611619Y-122891524D01*
X143611619Y-122243905D01*
X143954476Y-122320095D02*
X143992571Y-122282000D01*
X144068762Y-122243905D01*
X144259238Y-122243905D01*
X144335428Y-122282000D01*
X144373524Y-122320095D01*
X144411619Y-122396286D01*
X144411619Y-122472476D01*
X144373524Y-122586762D01*
X143916381Y-123043905D01*
X144411619Y-123043905D01*
X126390476Y-122243905D02*
X126390476Y-122891524D01*
X126428571Y-122967714D01*
X126466667Y-123005810D01*
X126542857Y-123043905D01*
X126695238Y-123043905D01*
X126771429Y-123005810D01*
X126809524Y-122967714D01*
X126847619Y-122891524D01*
X126847619Y-122243905D01*
X127152381Y-122243905D02*
X127647619Y-122243905D01*
X127380952Y-122548667D01*
X127495238Y-122548667D01*
X127571428Y-122586762D01*
X127609524Y-122624857D01*
X127647619Y-122701048D01*
X127647619Y-122891524D01*
X127609524Y-122967714D01*
X127571428Y-123005810D01*
X127495238Y-123043905D01*
X127266666Y-123043905D01*
X127190476Y-123005810D01*
X127152381Y-122967714D01*
X138042667Y-131857714D02*
X138004572Y-131895810D01*
X137890286Y-131933905D01*
X137814096Y-131933905D01*
X137699810Y-131895810D01*
X137623619Y-131819619D01*
X137585524Y-131743429D01*
X137547429Y-131591048D01*
X137547429Y-131476762D01*
X137585524Y-131324381D01*
X137623619Y-131248190D01*
X137699810Y-131172000D01*
X137814096Y-131133905D01*
X137890286Y-131133905D01*
X138004572Y-131172000D01*
X138042667Y-131210095D01*
X138804572Y-131933905D02*
X138347429Y-131933905D01*
X138576000Y-131933905D02*
X138576000Y-131133905D01*
X138499810Y-131248190D01*
X138423619Y-131324381D01*
X138347429Y-131362476D01*
X149637714Y-121545333D02*
X149675810Y-121583428D01*
X149713905Y-121697714D01*
X149713905Y-121773904D01*
X149675810Y-121888190D01*
X149599619Y-121964381D01*
X149523429Y-122002476D01*
X149371048Y-122040571D01*
X149256762Y-122040571D01*
X149104381Y-122002476D01*
X149028190Y-121964381D01*
X148952000Y-121888190D01*
X148913905Y-121773904D01*
X148913905Y-121697714D01*
X148952000Y-121583428D01*
X148990095Y-121545333D01*
X148990095Y-121240571D02*
X148952000Y-121202476D01*
X148913905Y-121126285D01*
X148913905Y-120935809D01*
X148952000Y-120859619D01*
X148990095Y-120821523D01*
X149066286Y-120783428D01*
X149142476Y-120783428D01*
X149256762Y-120821523D01*
X149713905Y-121278666D01*
X149713905Y-120783428D01*
X130930667Y-123983714D02*
X130892572Y-124021810D01*
X130778286Y-124059905D01*
X130702096Y-124059905D01*
X130587810Y-124021810D01*
X130511619Y-123945619D01*
X130473524Y-123869429D01*
X130435429Y-123717048D01*
X130435429Y-123602762D01*
X130473524Y-123450381D01*
X130511619Y-123374190D01*
X130587810Y-123298000D01*
X130702096Y-123259905D01*
X130778286Y-123259905D01*
X130892572Y-123298000D01*
X130930667Y-123336095D01*
X131197334Y-123259905D02*
X131692572Y-123259905D01*
X131425905Y-123564667D01*
X131540191Y-123564667D01*
X131616381Y-123602762D01*
X131654477Y-123640857D01*
X131692572Y-123717048D01*
X131692572Y-123907524D01*
X131654477Y-123983714D01*
X131616381Y-124021810D01*
X131540191Y-124059905D01*
X131311619Y-124059905D01*
X131235429Y-124021810D01*
X131197334Y-123983714D01*
X145662667Y-116363714D02*
X145624572Y-116401810D01*
X145510286Y-116439905D01*
X145434096Y-116439905D01*
X145319810Y-116401810D01*
X145243619Y-116325619D01*
X145205524Y-116249429D01*
X145167429Y-116097048D01*
X145167429Y-115982762D01*
X145205524Y-115830381D01*
X145243619Y-115754190D01*
X145319810Y-115678000D01*
X145434096Y-115639905D01*
X145510286Y-115639905D01*
X145624572Y-115678000D01*
X145662667Y-115716095D01*
X146348381Y-115906571D02*
X146348381Y-116439905D01*
X146157905Y-115601810D02*
X145967429Y-116173238D01*
X146462667Y-116173238D01*
X128390667Y-115855714D02*
X128352572Y-115893810D01*
X128238286Y-115931905D01*
X128162096Y-115931905D01*
X128047810Y-115893810D01*
X127971619Y-115817619D01*
X127933524Y-115741429D01*
X127895429Y-115589048D01*
X127895429Y-115474762D01*
X127933524Y-115322381D01*
X127971619Y-115246190D01*
X128047810Y-115170000D01*
X128162096Y-115131905D01*
X128238286Y-115131905D01*
X128352572Y-115170000D01*
X128390667Y-115208095D01*
X129114477Y-115131905D02*
X128733524Y-115131905D01*
X128695429Y-115512857D01*
X128733524Y-115474762D01*
X128809715Y-115436667D01*
X129000191Y-115436667D01*
X129076381Y-115474762D01*
X129114477Y-115512857D01*
X129152572Y-115589048D01*
X129152572Y-115779524D01*
X129114477Y-115855714D01*
X129076381Y-115893810D01*
X129000191Y-115931905D01*
X128809715Y-115931905D01*
X128733524Y-115893810D01*
X128695429Y-115855714D01*
X149637714Y-114433333D02*
X149675810Y-114471428D01*
X149713905Y-114585714D01*
X149713905Y-114661904D01*
X149675810Y-114776190D01*
X149599619Y-114852381D01*
X149523429Y-114890476D01*
X149371048Y-114928571D01*
X149256762Y-114928571D01*
X149104381Y-114890476D01*
X149028190Y-114852381D01*
X148952000Y-114776190D01*
X148913905Y-114661904D01*
X148913905Y-114585714D01*
X148952000Y-114471428D01*
X148990095Y-114433333D01*
X148913905Y-113747619D02*
X148913905Y-113900000D01*
X148952000Y-113976190D01*
X148990095Y-114014285D01*
X149104381Y-114090476D01*
X149256762Y-114128571D01*
X149561524Y-114128571D01*
X149637714Y-114090476D01*
X149675810Y-114052381D01*
X149713905Y-113976190D01*
X149713905Y-113823809D01*
X149675810Y-113747619D01*
X149637714Y-113709523D01*
X149561524Y-113671428D01*
X149371048Y-113671428D01*
X149294857Y-113709523D01*
X149256762Y-113747619D01*
X149218667Y-113823809D01*
X149218667Y-113976190D01*
X149256762Y-114052381D01*
X149294857Y-114090476D01*
X149371048Y-114128571D01*
X135502667Y-101377714D02*
X135464572Y-101415810D01*
X135350286Y-101453905D01*
X135274096Y-101453905D01*
X135159810Y-101415810D01*
X135083619Y-101339619D01*
X135045524Y-101263429D01*
X135007429Y-101111048D01*
X135007429Y-100996762D01*
X135045524Y-100844381D01*
X135083619Y-100768190D01*
X135159810Y-100692000D01*
X135274096Y-100653905D01*
X135350286Y-100653905D01*
X135464572Y-100692000D01*
X135502667Y-100730095D01*
X135769334Y-100653905D02*
X136302667Y-100653905D01*
X135959810Y-101453905D01*
X118484667Y-137445714D02*
X118446572Y-137483810D01*
X118332286Y-137521905D01*
X118256096Y-137521905D01*
X118141810Y-137483810D01*
X118065619Y-137407619D01*
X118027524Y-137331429D01*
X117989429Y-137179048D01*
X117989429Y-137064762D01*
X118027524Y-136912381D01*
X118065619Y-136836190D01*
X118141810Y-136760000D01*
X118256096Y-136721905D01*
X118332286Y-136721905D01*
X118446572Y-136760000D01*
X118484667Y-136798095D01*
X118865619Y-137521905D02*
X119018000Y-137521905D01*
X119094191Y-137483810D01*
X119132286Y-137445714D01*
X119208477Y-137331429D01*
X119246572Y-137179048D01*
X119246572Y-136874286D01*
X119208477Y-136798095D01*
X119170381Y-136760000D01*
X119094191Y-136721905D01*
X118941810Y-136721905D01*
X118865619Y-136760000D01*
X118827524Y-136798095D01*
X118789429Y-136874286D01*
X118789429Y-137064762D01*
X118827524Y-137140952D01*
X118865619Y-137179048D01*
X118941810Y-137217143D01*
X119094191Y-137217143D01*
X119170381Y-137179048D01*
X119208477Y-137140952D01*
X119246572Y-137064762D01*
X149713905Y-117989333D02*
X149332952Y-118256000D01*
X149713905Y-118446476D02*
X148913905Y-118446476D01*
X148913905Y-118141714D01*
X148952000Y-118065523D01*
X148990095Y-118027428D01*
X149066286Y-117989333D01*
X149180571Y-117989333D01*
X149256762Y-118027428D01*
X149294857Y-118065523D01*
X149332952Y-118141714D01*
X149332952Y-118446476D01*
X149180571Y-117303619D02*
X149713905Y-117303619D01*
X148875810Y-117494095D02*
X149447238Y-117684571D01*
X149447238Y-117189333D01*
X132949905Y-117989333D02*
X132568952Y-118256000D01*
X132949905Y-118446476D02*
X132149905Y-118446476D01*
X132149905Y-118141714D01*
X132188000Y-118065523D01*
X132226095Y-118027428D01*
X132302286Y-117989333D01*
X132416571Y-117989333D01*
X132492762Y-118027428D01*
X132530857Y-118065523D01*
X132568952Y-118141714D01*
X132568952Y-118446476D01*
X132149905Y-117265523D02*
X132149905Y-117646476D01*
X132530857Y-117684571D01*
X132492762Y-117646476D01*
X132454667Y-117570285D01*
X132454667Y-117379809D01*
X132492762Y-117303619D01*
X132530857Y-117265523D01*
X132607048Y-117227428D01*
X132797524Y-117227428D01*
X132873714Y-117265523D01*
X132911810Y-117303619D01*
X132949905Y-117379809D01*
X132949905Y-117570285D01*
X132911810Y-117646476D01*
X132873714Y-117684571D01*
X133965905Y-118497333D02*
X133584952Y-118764000D01*
X133965905Y-118954476D02*
X133165905Y-118954476D01*
X133165905Y-118649714D01*
X133204000Y-118573523D01*
X133242095Y-118535428D01*
X133318286Y-118497333D01*
X133432571Y-118497333D01*
X133508762Y-118535428D01*
X133546857Y-118573523D01*
X133584952Y-118649714D01*
X133584952Y-118954476D01*
X133165905Y-117811619D02*
X133165905Y-117964000D01*
X133204000Y-118040190D01*
X133242095Y-118078285D01*
X133356381Y-118154476D01*
X133508762Y-118192571D01*
X133813524Y-118192571D01*
X133889714Y-118154476D01*
X133927810Y-118116381D01*
X133965905Y-118040190D01*
X133965905Y-117887809D01*
X133927810Y-117811619D01*
X133889714Y-117773523D01*
X133813524Y-117735428D01*
X133623048Y-117735428D01*
X133546857Y-117773523D01*
X133508762Y-117811619D01*
X133470667Y-117887809D01*
X133470667Y-118040190D01*
X133508762Y-118116381D01*
X133546857Y-118154476D01*
X133623048Y-118192571D01*
X115944667Y-118725905D02*
X115678000Y-118344952D01*
X115487524Y-118725905D02*
X115487524Y-117925905D01*
X115792286Y-117925905D01*
X115868477Y-117964000D01*
X115906572Y-118002095D01*
X115944667Y-118078286D01*
X115944667Y-118192571D01*
X115906572Y-118268762D01*
X115868477Y-118306857D01*
X115792286Y-118344952D01*
X115487524Y-118344952D01*
X116211334Y-117925905D02*
X116744667Y-117925905D01*
X116401810Y-118725905D01*
D13*
X128849381Y-143486095D02*
X127849381Y-143486095D01*
X127849381Y-143105142D01*
X127897000Y-143009904D01*
X127944619Y-142962285D01*
X128039857Y-142914666D01*
X128182714Y-142914666D01*
X128277952Y-142962285D01*
X128325571Y-143009904D01*
X128373190Y-143105142D01*
X128373190Y-143486095D01*
X127849381Y-142581333D02*
X127849381Y-141962285D01*
X128230333Y-142295619D01*
X128230333Y-142152761D01*
X128277952Y-142057523D01*
X128325571Y-142009904D01*
X128420810Y-141962285D01*
X128658905Y-141962285D01*
X128754143Y-142009904D01*
X128801762Y-142057523D01*
X128849381Y-142152761D01*
X128849381Y-142438476D01*
X128801762Y-142533714D01*
X128754143Y-142581333D01*
D12*
X109327905Y-115906476D02*
X108527905Y-115906476D01*
X108527905Y-115601714D01*
X108566000Y-115525523D01*
X108604095Y-115487428D01*
X108680286Y-115449333D01*
X108794571Y-115449333D01*
X108870762Y-115487428D01*
X108908857Y-115525523D01*
X108946952Y-115601714D01*
X108946952Y-115906476D01*
X108604095Y-115144571D02*
X108566000Y-115106476D01*
X108527905Y-115030285D01*
X108527905Y-114839809D01*
X108566000Y-114763619D01*
X108604095Y-114725523D01*
X108680286Y-114687428D01*
X108756476Y-114687428D01*
X108870762Y-114725523D01*
X109327905Y-115182666D01*
X109327905Y-114687428D01*
X109835905Y-132162476D02*
X109035905Y-132162476D01*
X109035905Y-131857714D01*
X109074000Y-131781523D01*
X109112095Y-131743428D01*
X109188286Y-131705333D01*
X109302571Y-131705333D01*
X109378762Y-131743428D01*
X109416857Y-131781523D01*
X109454952Y-131857714D01*
X109454952Y-132162476D01*
X109378762Y-131248190D02*
X109340667Y-131324381D01*
X109302571Y-131362476D01*
X109226381Y-131400571D01*
X109188286Y-131400571D01*
X109112095Y-131362476D01*
X109074000Y-131324381D01*
X109035905Y-131248190D01*
X109035905Y-131095809D01*
X109074000Y-131019619D01*
X109112095Y-130981523D01*
X109188286Y-130943428D01*
X109226381Y-130943428D01*
X109302571Y-130981523D01*
X109340667Y-131019619D01*
X109378762Y-131095809D01*
X109378762Y-131248190D01*
X109416857Y-131324381D01*
X109454952Y-131362476D01*
X109531143Y-131400571D01*
X109683524Y-131400571D01*
X109759714Y-131362476D01*
X109797810Y-131324381D01*
X109835905Y-131248190D01*
X109835905Y-131095809D01*
X109797810Y-131019619D01*
X109759714Y-130981523D01*
X109683524Y-130943428D01*
X109531143Y-130943428D01*
X109454952Y-130981523D01*
X109416857Y-131019619D01*
X109378762Y-131095809D01*
X143300571Y-129647905D02*
X143300571Y-128847905D01*
X143605333Y-128847905D01*
X143681524Y-128886000D01*
X143719619Y-128924095D01*
X143757714Y-129000286D01*
X143757714Y-129114571D01*
X143719619Y-129190762D01*
X143681524Y-129228857D01*
X143605333Y-129266952D01*
X143300571Y-129266952D01*
X144519619Y-129647905D02*
X144062476Y-129647905D01*
X144291047Y-129647905D02*
X144291047Y-128847905D01*
X144214857Y-128962190D01*
X144138666Y-129038381D01*
X144062476Y-129076476D01*
X145014857Y-128847905D02*
X145091048Y-128847905D01*
X145167238Y-128886000D01*
X145205333Y-128924095D01*
X145243429Y-129000286D01*
X145281524Y-129152667D01*
X145281524Y-129343143D01*
X145243429Y-129495524D01*
X145205333Y-129571714D01*
X145167238Y-129609810D01*
X145091048Y-129647905D01*
X145014857Y-129647905D01*
X144938667Y-129609810D01*
X144900571Y-129571714D01*
X144862476Y-129495524D01*
X144824381Y-129343143D01*
X144824381Y-129152667D01*
X144862476Y-129000286D01*
X144900571Y-128924095D01*
X144938667Y-128886000D01*
X145014857Y-128847905D01*
D15*
X140599334Y-130110667D02*
X140366000Y-129777333D01*
X140199334Y-130110667D02*
X140199334Y-129410667D01*
X140466000Y-129410667D01*
X140532667Y-129444000D01*
X140566000Y-129477333D01*
X140599334Y-129544000D01*
X140599334Y-129644000D01*
X140566000Y-129710667D01*
X140532667Y-129744000D01*
X140466000Y-129777333D01*
X140199334Y-129777333D01*
X141266000Y-130110667D02*
X140866000Y-130110667D01*
X141066000Y-130110667D02*
X141066000Y-129410667D01*
X140999334Y-129510667D01*
X140932667Y-129577333D01*
X140866000Y-129610667D01*
X130947334Y-134174667D02*
X130714000Y-133841333D01*
X130547334Y-134174667D02*
X130547334Y-133474667D01*
X130814000Y-133474667D01*
X130880667Y-133508000D01*
X130914000Y-133541333D01*
X130947334Y-133608000D01*
X130947334Y-133708000D01*
X130914000Y-133774667D01*
X130880667Y-133808000D01*
X130814000Y-133841333D01*
X130547334Y-133841333D01*
X131214000Y-133541333D02*
X131247334Y-133508000D01*
X131314000Y-133474667D01*
X131480667Y-133474667D01*
X131547334Y-133508000D01*
X131580667Y-133541333D01*
X131614000Y-133608000D01*
X131614000Y-133674667D01*
X131580667Y-133774667D01*
X131180667Y-134174667D01*
X131614000Y-134174667D01*
X134249334Y-134936667D02*
X134016000Y-134603333D01*
X133849334Y-134936667D02*
X133849334Y-134236667D01*
X134116000Y-134236667D01*
X134182667Y-134270000D01*
X134216000Y-134303333D01*
X134249334Y-134370000D01*
X134249334Y-134470000D01*
X134216000Y-134536667D01*
X134182667Y-134570000D01*
X134116000Y-134603333D01*
X133849334Y-134603333D01*
X134482667Y-134236667D02*
X134916000Y-134236667D01*
X134682667Y-134503333D01*
X134782667Y-134503333D01*
X134849334Y-134536667D01*
X134882667Y-134570000D01*
X134916000Y-134636667D01*
X134916000Y-134803333D01*
X134882667Y-134870000D01*
X134849334Y-134903333D01*
X134782667Y-134936667D01*
X134582667Y-134936667D01*
X134516000Y-134903333D01*
X134482667Y-134870000D01*
X128912667Y-130531333D02*
X129479333Y-130531333D01*
X129546000Y-130498000D01*
X129579333Y-130464667D01*
X129612667Y-130398000D01*
X129612667Y-130264667D01*
X129579333Y-130198000D01*
X129546000Y-130164667D01*
X129479333Y-130131333D01*
X128912667Y-130131333D01*
X129146000Y-129498000D02*
X129612667Y-129498000D01*
X128879333Y-129664667D02*
X129379333Y-129831334D01*
X129379333Y-129398000D01*
X137659334Y-117410667D02*
X137659334Y-116710667D01*
X137826000Y-116710667D01*
X137926000Y-116744000D01*
X137992667Y-116810667D01*
X138026000Y-116877333D01*
X138059334Y-117010667D01*
X138059334Y-117110667D01*
X138026000Y-117244000D01*
X137992667Y-117310667D01*
X137926000Y-117377333D01*
X137826000Y-117410667D01*
X137659334Y-117410667D01*
X138659334Y-116944000D02*
X138659334Y-117410667D01*
X138492667Y-116677333D02*
X138326000Y-117177333D01*
X138759334Y-117177333D01*
X120895334Y-116902667D02*
X120895334Y-116202667D01*
X121062000Y-116202667D01*
X121162000Y-116236000D01*
X121228667Y-116302667D01*
X121262000Y-116369333D01*
X121295334Y-116502667D01*
X121295334Y-116602667D01*
X121262000Y-116736000D01*
X121228667Y-116802667D01*
X121162000Y-116869333D01*
X121062000Y-116902667D01*
X120895334Y-116902667D01*
X121895334Y-116202667D02*
X121762000Y-116202667D01*
X121695334Y-116236000D01*
X121662000Y-116269333D01*
X121595334Y-116369333D01*
X121562000Y-116502667D01*
X121562000Y-116769333D01*
X121595334Y-116836000D01*
X121628667Y-116869333D01*
X121695334Y-116902667D01*
X121828667Y-116902667D01*
X121895334Y-116869333D01*
X121928667Y-116836000D01*
X121962000Y-116769333D01*
X121962000Y-116602667D01*
X121928667Y-116536000D01*
X121895334Y-116502667D01*
X121828667Y-116469333D01*
X121695334Y-116469333D01*
X121628667Y-116502667D01*
X121595334Y-116536000D01*
X121562000Y-116602667D01*
X141977334Y-113600667D02*
X141977334Y-112900667D01*
X142144000Y-112900667D01*
X142244000Y-112934000D01*
X142310667Y-113000667D01*
X142344000Y-113067333D01*
X142377334Y-113200667D01*
X142377334Y-113300667D01*
X142344000Y-113434000D01*
X142310667Y-113500667D01*
X142244000Y-113567333D01*
X142144000Y-113600667D01*
X141977334Y-113600667D01*
X142610667Y-112900667D02*
X143077334Y-112900667D01*
X142777334Y-113600667D01*
X131563334Y-115124667D02*
X131563334Y-114424667D01*
X131730000Y-114424667D01*
X131830000Y-114458000D01*
X131896667Y-114524667D01*
X131930000Y-114591333D01*
X131963334Y-114724667D01*
X131963334Y-114824667D01*
X131930000Y-114958000D01*
X131896667Y-115024667D01*
X131830000Y-115091333D01*
X131730000Y-115124667D01*
X131563334Y-115124667D01*
X132363334Y-114724667D02*
X132296667Y-114691333D01*
X132263334Y-114658000D01*
X132230000Y-114591333D01*
X132230000Y-114558000D01*
X132263334Y-114491333D01*
X132296667Y-114458000D01*
X132363334Y-114424667D01*
X132496667Y-114424667D01*
X132563334Y-114458000D01*
X132596667Y-114491333D01*
X132630000Y-114558000D01*
X132630000Y-114591333D01*
X132596667Y-114658000D01*
X132563334Y-114691333D01*
X132496667Y-114724667D01*
X132363334Y-114724667D01*
X132296667Y-114758000D01*
X132263334Y-114791333D01*
X132230000Y-114858000D01*
X132230000Y-114991333D01*
X132263334Y-115058000D01*
X132296667Y-115091333D01*
X132363334Y-115124667D01*
X132496667Y-115124667D01*
X132563334Y-115091333D01*
X132596667Y-115058000D01*
X132630000Y-114991333D01*
X132630000Y-114858000D01*
X132596667Y-114791333D01*
X132563334Y-114758000D01*
X132496667Y-114724667D01*
M02*
