M48
METRIC,TZ
T1C0.500
T2C0.635
T3C0.800
T4C1.000
T5C1.016
T6C1.500
T7C2.000
T8C1.500
T9C1.700
%
G90
G05
T1
X109982Y-125222
X112268Y-133858
X113538Y-133858
X113792Y-114046
X114808Y-115062
X114808Y-133858
X116586Y-136906
X117602Y-125222
X118872Y-132588
X119634Y-127000
X119888Y-130556
X120142Y-105156
X120142Y-110490
X120142Y-135890
X122428Y-123190
X122682Y-133604
X123190Y-132588
X124460Y-125984
X124460Y-132588
X124968Y-136906
X125476Y-129540
X126492Y-134112
X126746Y-137414
X127762Y-131064
X129032Y-125984
X129032Y-128016
X129540Y-133858
X129540Y-135128
X131064Y-122412
X134620Y-114554
X134620Y-131064
X138176Y-136144
X138176Y-137668
X139700Y-125476
X139700Y-128966
X139700Y-140208
T2
X121666Y-136906
X123698Y-136906
T3
X146796Y-113300
T4
X102339Y-105156
X105664Y-106172
X109220Y-112776
X111252Y-102108
X119888Y-117856
X125476Y-118872
X129032Y-113792
X133350Y-116078
X135636Y-103140
X143764Y-117348
T5
X104140Y-115316
X104140Y-117856
X104140Y-120396
X104140Y-122936
X104140Y-125476
X104140Y-128016
X104140Y-130556
X104140Y-133096
X104140Y-135636
X104140Y-138176
X104140Y-140716
X104140Y-143256
X104140Y-145796
X104140Y-148336
X106680Y-115316
X106680Y-117856
X106680Y-120396
X106680Y-122936
X106680Y-125476
X106680Y-128016
X106680Y-130556
X106680Y-133096
X106680Y-135636
X106680Y-138176
X106680Y-140716
X106680Y-143256
X106680Y-145796
X106680Y-148336
X111760Y-118872
X111760Y-121412
X111760Y-123952
X111760Y-126492
X111760Y-129032
X111760Y-131572
X132588Y-141732
X132588Y-144272
X135128Y-141732
X135128Y-144272
X137668Y-141732
X137668Y-144272
X141732Y-141732
X141732Y-144272
X144272Y-131572
X144272Y-134112
X144272Y-136652
X144272Y-139192
X144272Y-141732
X144272Y-144272
X146812Y-131572
X146812Y-134112
X146812Y-136652
X146812Y-139192
X146812Y-141732
X146812Y-144272
T8
X125782Y-101176
X125782Y-105276
X125782Y-111176
X132282Y-101176
X132282Y-105176
X132282Y-111176
X139498Y-101176
X139498Y-105276
X139498Y-111176
X145998Y-101176
X145998Y-105176
X145998Y-111176
T9
X105664Y-102656
X105664Y-108656
X116840Y-102656
X116840Y-108656
T6
X124032Y-108776G85X124032Y-109776
G05
X134032Y-108776G85X134032Y-109776
G05
X137748Y-108776G85X137748Y-109776
G05
X147748Y-108776G85X147748Y-109776
G05
T7
X130232Y-105376G85X127832Y-105376
G05
X143948Y-105376G85X141548Y-105376
G05
T0
M30
